<?xml version="1.0" standalone="no"?>
<!DOCTYPE svg PUBLIC "-//W3C//DTD SVG 1.1//EN" "http://www.w3.org/Graphics/SVG/1.1/DTD/svg11.dtd" >
<!--
2013-9-30: Created.
-->
<svg>
<metadata>
Created by iconfont
</metadata>
<defs>

<font id="qycloud" horiz-adv-x="1024" >
  <font-face
    font-family="qycloud"
    font-weight="500"
    font-stretch="normal"
    units-per-em="1024"
    ascent="896"
    descent="-128"
  />
    <missing-glyph />
    
    <glyph glyph-name="dengpao" unicode="&#59880;" d="M325.44085333 197.29521778000003a373.26392889 373.26392889 0 1 0 559.82307556 323.31093333 373.11829333 373.11829333 0 0 0-186.63196444-323.31093333V65.42222221999998a36.40888889 36.40888889 0 0 0-36.4088889-36.40888889H361.70410667a36.40888889 36.40888889 0 0 0-36.40888889 36.40888889V197.2224zM375.46666667-43.804444450000005h273.06666666c5.02442667 0 9.10222222-4.07779555 9.10222222-9.10222222v-36.40888888a36.40888889 36.40888889 0 0 0-36.40888888-36.4088889H402.77333333a36.40888889 36.40888889 0 0 0-36.40888888 36.4088889v36.40888888c0 5.02442667 4.07779555 9.10222222 9.10222222 9.10222222z"  horiz-adv-x="1024" />

    
    <glyph glyph-name="xitong" unicode="&#59848;" d="M268.8 844.8C389.12 844.8 476.16 747.52 476.16 627.2V419.84H268.8C148.48 419.84 51.2 506.88 51.2 627.2S148.48 844.8 268.8 844.8z m486.4 0C875.52 844.8 972.8 747.52 972.8 627.2S875.52 419.84 755.2 419.84H547.84V627.2C547.84 747.52 634.88 844.8 755.2 844.8zM547.84 348.16h207.36c120.32 0 217.6-87.04 217.6-207.36S875.52-76.8 755.2-76.8 547.84 20.48 547.84 140.8V348.16z m-279.04 0H476.16v-207.36C476.16 20.48 389.12-76.8 268.8-76.8S51.2 20.48 51.2 140.8 148.48 348.16 268.8 348.16z"  horiz-adv-x="1024" />

    
    <glyph glyph-name="yewutixing2" unicode="&#59856;" d="M972.288 269.824V562.176c0 38.912-30.72 71.168-68.608 71.168h-153.6V740.352c0 29.184-23.04 53.248-51.2 53.248H324.096c-28.16 0-51.2-24.064-51.2-53.248v-107.008H119.808C81.92 633.856 51.2 601.088 51.2 562.176v-516.608c0-39.424 30.72-71.168 68.608-71.168h784.896c37.888 0 68.608 31.744 68.608 71.168l-1.024 224.256zM392.704 740.352h239.104c28.16 0 51.2-24.064 51.2-53.248-0.512-29.184-23.04-53.248-51.2-53.248H392.192c-28.16 0-50.688 24.064-50.688 53.248-0.512 29.184 22.528 53.248 51.2 53.248z m506.88-628.736c0-31.744-26.112-57.344-57.856-57.344H181.76c-31.744 0-57.856 26.112-57.856 57.344V502.272c0 31.744 26.112 57.344 57.856 57.344h659.456c31.744 0 57.856-26.112 57.856-57.344v-390.656zM123.904 364.544h775.68v-77.312H123.904zM259.072 205.824H250.88c-27.136 0-49.152 22.016-49.152 49.152V397.312c0 27.136 22.016 49.152 49.152 49.152h8.192c27.136 0 49.152-22.016 49.152-49.152v-142.336c0-27.136-22.016-49.152-49.152-49.152zM792.064 205.824h-8.192c-27.136 0-49.152 22.016-49.152 49.152V397.312c0 27.136 22.016 49.152 49.152 49.152h8.192c27.136 0 49.152-22.016 49.152-49.152v-142.336c0-27.136-22.016-49.152-49.152-49.152z"  horiz-adv-x="1024" />

    
    <glyph glyph-name="basis-001" unicode="&#59835;" d="M619.038 719.992l78.02-107.279a128.392 128.392 0 0 1 103.514-52.72H960v-512H64v512h159.413a128.346 128.346 0 0 1 103.514 52.72l78.035 107.28h214.076M512 143.992c105.864 0 192 86.136 192 192s-86.136 192.015-192 192.015-192-86.137-192-192 86.136-192.016 192-192.016m107.038 640H404.962a64 64 0 0 1-51.757-26.352l-78.02-107.28a63.985 63.985 0 0 0-51.757-26.352H64a64 64 0 0 1-64-64v-512a64 64 0 0 1 64-64h896a64 64 0 0 1 64 64v512a64 64 0 0 1-64 64H800.587a64 64 0 0 0-51.757 26.352l-78.02 107.28a64 64 0 0 1-51.772 26.352zM512 208.008a128 128 0 1 0 0 256 128 128 0 0 0 0-256zM207.992 719.992h-128a31.985 31.985 0 1 1 0-64h128a31.985 31.985 0 1 1 0 64z"  horiz-adv-x="1024" />

    
    <glyph glyph-name="basis-008" unicode="&#59836;" d="M539.332 803.72c36.668 33.927 53.58 32.466 79.405 32.015l292.97-5.105c25.72-0.452 46.908-21.55 47.33-47.33l4.713-292.593c0.406-25.69 0.948-48.37-32.076-79.345L466.161-54.136a46.366 46.366 0 0 0-65.596-0.046L73.773 272.61a46.441 46.441 0 0 0 0.045 65.596L539.332 803.72z m69.12-35.389L109.237 279.838c19.5 19.38 19.561 35.705-0.06 55.19l350.448-348.204c-19.561 19.425-43.685 11.88-63.171-7.47l499.215 496.023c0.3 0.286 5.21 12.363 5.195 12.875L895.819 807.53c0.422-26.051 13.613-39.077 39.71-39.529l-314.187 5.436c-0.617 0.015-12.574-4.788-12.89-5.105z m83.998-203.836c25.796-25.796 67.945-25.48 94.133 0.723 26.187 26.187 26.518 68.337 0.722 94.133-25.795 25.795-67.945 25.48-94.132-0.723-26.188-26.188-26.519-68.337-0.723-94.133z m0 0"  horiz-adv-x="1024" />

    
    <glyph glyph-name="basis-009" unicode="&#59837;" d="M650.511 342.302c-15.48 23.025-15.36 60.522 0 83.38l247.673 368.385c15.48 23.025 6.716 41.698-19.487 41.698H145.272c-26.247 0-34.846-18.839-19.47-41.698l247.762-368.384c15.48-23.025 15.375-60.522 0-83.38l-247.763-368.37c-15.495-23.025-6.64-41.698 19.622-41.698h733.214c26.278 0 34.922 18.839 19.547 41.698L650.51 342.303zM217.495-7.529l-0.633-0.317L411.86 281.54c39.755 59.106 39.83 145.694 0 204.92l-202.21 289.07H814.35L609.837 486.444c-39.725-59.09-39.815-145.679 0-204.89l194.32-289.4-586.662 0.316zM511.352 285.636l143.104-206.517H368.248l143.104 206.517z"  horiz-adv-x="1024" />

    
    <glyph glyph-name="basis-013" unicode="&#59838;" d="M944.158 546.168l-269.99 269.99a66.952 66.952 0 0 1-47.314 19.607H127.157a66.921 66.921 0 0 1-66.922-66.922v-769.671a66.936 66.936 0 0 1 66.922-66.937h769.671a66.936 66.936 0 0 1 66.937 66.922V498.854a66.952 66.952 0 0 1-19.607 47.314zM277.745 768.843h200.78v-117.127h-200.78V768.843z m468.51-769.686h-468.51V149.745H746.24v-150.588z m150.588 0h-83.667V183.22a33.46 33.46 0 0 1-33.46 33.46H244.284a33.46 33.46 0 0 1-33.46-33.46v-184.05h-83.667V768.844h83.667v-150.588c0-18.477 14.983-33.46 33.46-33.46H512a33.46 33.46 0 0 1 33.46 33.46V768.843h81.379l269.99-269.99v-499.696z"  horiz-adv-x="1024" />

    
    <glyph glyph-name="basis-010" unicode="&#59839;" d="M903.53 805.858a29.907 29.907 0 0 1-29.907 29.907H256.196c-75.31 0-135.725-65.34-135.725-145.213v-596.961c0-88.787 67.087-161.356 150.663-161.356h602.489a29.907 29.907 0 0 1 29.906 29.907V579.976a29.907 29.907 0 0 1-29.906 29.906H256.196c-39.996 0-73.08 35.78-73.08 80.67s33.068 80.67 73.08 80.67h617.427c16.52 0 29.906 13.403 29.906 29.922v4.714zM480.677 545.34H652.95v-173.643l-66.741 54.151a30.57 30.57 0 0 1-38.746 0l-66.786-54.151V545.34z m-224.482 0h161.837v-240.113c-0.015-17.814 14.005-32.27 31.307-32.286 7.048 0 13.884 2.44 19.411 6.927l98.063 79.571 98.063-79.57c13.583-11.039 33.28-8.63 43.987 5.375 4.352 5.692 6.731 12.74 6.716 19.998V545.34h125.29v-548.578H271.134c-48.263 0-88.019 43.008-88.019 96.814v474.94c21.083-14.487 46.05-23.176 73.08-23.176z m51.652 177.484h502.046c17.122 0 30.99-13.87 30.99-30.992v-2.56a30.976 30.976 0 0 0-30.99-30.99H307.848a30.976 30.976 0 0 0-30.992 30.99v2.56c0 17.122 13.885 30.992 30.992 30.992z"  horiz-adv-x="1024" />

    
    <glyph glyph-name="basis-011" unicode="&#59840;" d="M944.196665 120.090938l-56.319305 47.79541V419.170246c0 171.877878-116.040568 316.72709-274.291614 360.924545C621.158653 836.0371 581.826138 887.507465 525.718831 895.067372S417.98916 863.397762 410.400254 807.471453a101.509747 101.509747 0 0 1 0-27.361662C252.163207 735.897336 136.10564 591.049124 136.10564 419.170246v-253.226874L80.345328 120.526932a33.972581 33.972581 0 0 1-12.573845-26.397674v-67.688164a34.122579 34.122579 0 0 1 34.167579-34.06258h200.86752c2.739966-4.772941 5.434933-9.531882 8.506895-14.109826a239.146048 239.146048 0 0 1 199.120542-106.253688 239.237047 239.237047 0 0 1 203.667486 113.346601c1.399983 2.288972 2.499969 4.697942 3.824953 7.016913h204.13448a34.122579 34.122579 0 0 1 34.167579 34.06258v67.689164a34.05658 34.05658 0 0 1-12.031852 25.95968zM510.39002-59.830841a170.553895 170.553895 0 0 0-122.712485 52.223355h245.42497a170.327898 170.327898 0 0 0-122.712485-52.223355z m377.50434 120.363514H136.10664v17.437785l68.336156 55.627313V419.170246c0 137.439303 91.691868 258.103814 224.40323 295.298355l57.268294 15.977803-7.980902 58.773274a34.092579 34.092579 0 0 0 29.289638 38.324527 34.167578 34.167578 0 0 0 38.443526-38.324527l-7.995901-58.773274 57.268293-15.977803c132.711362-37.194541 224.40323-157.858051 224.40323-295.298355v-282.77151l68.336156-58.020283v-17.84478h0.015z"  horiz-adv-x="1024" />

    
    <glyph glyph-name="basis-002" unicode="&#59841;" d="M77.824-99.147a47.842 47.842 0 0 0-33.882 14.2c-17.032 17.077-19.065 43.31-4.79 62.389l200.404 271.18L82.492 405.67c-15.33 15.33-18.356 39.288-7.394 58.307 7.515 11.867 72.132 106.12 215.838 70.551 2.38-0.286 4.955-0.512 7.726-0.753 5.888-0.512 12.483-1.114 19.636-2.259 30.42-4.94 84.194 19.486 130.877 59.287 44.724 38.084 73.637 82.537 73.637 113.182 0 7.123-0.165 14.697-0.331 22.136-1.205 28.808-3.027 73.08 30.072 106.165a107.4 107.4 0 0 0 144.159 7.394c0.873-0.693 1.656-1.446 2.424-2.244h-0.03c23.13-22.618 260.156-259.418 262.64-261.918a107.52 107.52 0 0 0 31.685-76.348 106.963 106.963 0 0 0-31.549-76.273c-32.933-32.964-77.462-31.081-106.812-29.832-6.957 0.151-14.562 0.317-21.654 0.317-28.989 0-63.67-20.315-97.552-57.149-47.781-51.968-77.221-119.1-74.691-149.187 1.054-9.653 3.027-26.685 3.388-29.094 34.695-140.71-59.362-204.89-70.19-211.727-19.47-11.746-43.595-8.825-59.27 6.807L367.344 120.817c-9.412 9.412-8.614 41.623 7.093 55.28a41.02 41.02 0 0 0 55.28 0l139.445-146.521c7.394 4.788 54.077 15.962 27.016 126.117-0.482 2.214-2.861 22.167-4.111 33.837-4.036 48.083 26.232 114.643 70.52 166.912 30.51 33.16 39.86 51.381 83.26 83.26 32 23.507 81.86 28.176 89.63 28.01 30.495-1.28 53.866-4.984 78.261 3.373 11.264 11.264 17.438 12.062 17.438 28.01-0.03 16.007-27.542 38.129-38.851 49.453-2.485 2.5-219.468 219.12-226.907 226.259-22.829 18.552-50.01 16.82-71.71-4.91-16.85-16.85-11.204-54.211-9.984-83.937-1.777-28.341-14.17-61.124-32.768-84.15-14.697-18.19-7.981-20.795-64.662-69.09-46.532-39.634-114.432-85.744-168.524-77.07-5.918 0.964-11.339 1.415-16.173 1.822a224.15 224.15 0 0 0-8.764 0.873 24.56 24.56 0 0 0-6.762 1.22c-110.757 27.317-129.28-12.514-134.264-20.374l171.881-178.282c8.418-8.418 9.427-21.73 2.335-31.322L87.37-39.514l204.92 141.733c10.753 7.876 45.268 17.318 62.013-5.315 15.059-20.375 2.756-47.993-7.966-55.808l-240.37-130.862a46.968 46.968 0 0 0-28.144-9.381z"  horiz-adv-x="1024" />

    
    <glyph glyph-name="basis-004" unicode="&#59842;" d="M993.882 594.899c0 62.027-50.447 112.474-112.504 112.474S768.873 656.926 768.873 594.9c0-53.128 37.09-97.506 86.694-109.252-44.574-88.862-103.47-171.46-135.017-171.46-30.705 0-92.597 89.57-155.212 261.196A126.524 126.524 0 0 1 641.04 691.44c0 70.19-57.118 127.277-127.307 127.277-70.22 0-127.338-57.118-127.338-127.277a126.464 126.464 0 0 1 75.957-116.149c-66.635-184.62-124.627-252.657-148.435-252.657-44.228 0-105.637 85.986-145.604 163.042 49.634 11.716 86.8 56.124 86.8 109.282 0 62.027-50.478 112.474-112.505 112.474S30.117 656.986 30.117 594.96c0-42.511 24.004-79.15 58.896-98.274L111.3 47.631a32.226 32.226 0 0 1 14.908-25.615c4.683-2.997 117.64-72.734 387.539-72.734s382.855 69.993 387.539 72.96a32.422 32.422 0 0 1 14.908 25.81l19.862 449.205c34.274 19.2 57.826 55.552 57.826 97.642z m-160.527 0a48.038 48.038 0 0 0 47.993 47.962A48.038 48.038 0 0 0 929.34 594.9a48.053 48.053 0 0 0-47.992-47.993 48.038 48.038 0 0 0-47.993 47.993z m-382.479 96.497c0 34.605 28.19 62.765 62.826 62.765s62.795-28.16 62.795-62.765c0-32.09-24.26-58.73-56.44-62.028a29.967 29.967 0 0 1-6.295-1.295 31.503 31.503 0 0 1-6.355 1.295 62.374 62.374 0 0 0-56.53 62.028zM142.592 642.86a48.023 48.023 0 0 0 47.992-47.962c0-26.474-21.519-47.993-47.992-47.993S94.6 568.426 94.6 594.9a48.023 48.023 0 0 0 47.992 47.962zM852.51 69.436c-35.96-16.55-141.96-55.732-338.808-55.732-197.135 0-303.195 39.152-338.93 55.567L159.64 373.564c40.478-58.895 94.825-115.47 154.202-115.47 65.385 0 132.563 90.894 199.981 270.395 69.963-185.042 139.37-278.814 206.682-278.814 53.158 0 105.186 59.407 145.333 122.278L852.51 69.436z"  horiz-adv-x="1024" />

    
    <glyph glyph-name="basis-006" unicode="&#59843;" d="M163.584 433.453l214.423-134.626c15.465-9.17 20.841-29.605 12.001-45.658-8.84-16.053-28.551-21.625-44.032-12.454a22.061 22.061 0 0 0-1.4 0.889L75.821 410.293c-15.254 9.562-20.149 30.132-10.917 45.944 3.553 6.084 8.884 10.843 15.209 13.583L919.085 833.175c16.444 7.107 35.343-0.964 42.195-18.026a34.693 34.693 0 0 0 1.912-19.125L816.203-7.108c-3.328-18.16-20.209-30.087-37.722-26.639a31.247 31.247 0 0 0-11.264 4.623l-272.46 179.17c-15.058 9.894-19.53 30.57-9.998 46.186 9.532 15.616 29.47 20.254 44.529 10.375l232.387-152.802 126.916 693.61-725.007-313.962zM415.217 241.68v-275.983c0-18.477-14.441-33.46-32.271-33.46s-32.271 14.983-32.271 33.46V257.069c0 9.788 4.126 19.08 11.294 25.435L754.22 630.799a31.473 31.473 0 0 0 45.493-3.674c11.58-14.05 9.999-35.178-3.554-47.18l-380.958-338.22v-0.046z"  horiz-adv-x="1024" />

    
    <glyph glyph-name="basis-005" unicode="&#59844;" d="M936.162 796.085H87.823c-26.79 0-35.614-17.288-19.576-38.807l310.422-416.391V-28.07l266.647 121.194V340.887l310.422 416.376c15.978 21.444 7.41 38.822-19.576 38.822zM605.229 398.833L586 373.053v-243.924l-148.013-57.69V373.052l-19.23 25.78L167.529 736h0.467l689.122 0.708L605.23 398.833z"  horiz-adv-x="1024" />

    
    <glyph glyph-name="basis-012" unicode="&#59845;" d="M879.435 287.624c-15.059 0-31.623-15.06-31.623-30.118v-174.682c0-18.071-15.06-31.624-31.624-31.624h-614.4c-15.059 0-27.106 18.07-27.106 31.624V263.529c0 13.553-18.07 24.095-31.623 24.095s-31.624-10.542-31.624-24.095v-215.34c0-34.636 27.106-61.742 61.741-61.742h676.142c34.635 0 61.74 27.106 61.74 61.741V257.506c0 15.059-16.564 30.118-31.623 30.118z m84.33 257.505c0 4.518 0 9.036-1.506 13.553L850.824 769.506c-1.506 9.035-10.542 13.553-16.565 13.553H171.67c-9.036 0-16.565-6.024-19.577-13.553L61.741 554.165c-1.506-4.518-1.506-7.53-1.506-12.047v-72.283c0-76.8 64.753-140.047 141.553-140.047h40.66c16.564 0 64.752 6.024 109.928 55.718 25.6-36.141 79.812-55.718 138.542-55.718h45.176c55.718 0 102.4 19.577 129.506 60.236 25.6-37.648 82.824-57.224 117.459-57.224h40.659c76.8 0 140.047 51.2 140.047 140.047V545.13z m-764.989 179.2h606.871l75.294-143.058H143.06l55.717 143.058z m624.942-328.282h-40.66c-30.117 0-82.823 33.13-82.823 69.27 0 13.554-16.564 28.612-36.14 28.612-21.083 0-36.142-15.058-36.142-28.611v-10.542c0-33.129-55.718-67.764-93.365-67.764h-45.176c-43.67 0-102.4 27.106-102.4 60.235v9.035c0 13.553-15.06 28.612-36.141 28.612-19.577 0-36.142-15.059-36.142-28.612 0-31.623-36.14-64.753-90.353-64.753l-21.082 1.506c-28.612 0-82.823 24.094-82.823 69.27v54.213h774.023v-51.2c4.518-37.647-33.13-69.27-70.776-69.27z"  horiz-adv-x="1024" />

    
    <glyph glyph-name="basis-003" unicode="&#59846;" d="M401.668-67.88c-15.01 0.225-34.644 0.571-35.758 0.797 0.482-0.09 17.887-9.049 17.887-21.922 0 41.616 0.361 33.35 0.361 87.688 0 43-0.12 123.656-0.12 127.57 0 23.292 0.632 21.802-9.019 31.453-1.506 1.505-181.683 154.868-205.532 246.454-8.296 24.015-11.804 59.05-11.804 79.692 0 201.603 197.176 350.056 353.82 350.056 192.478 0 356.68-158.586 356.68-352.434 0-73.881-55.466-148.138-107.741-205.924C655.68 161.38 628.219 148.823 628.219 119.794v-117.498l25.173 40.23h-289.5c-13.896 0-25.173-26.333-25.173-40.23s11.277-25.174 25.173-25.174H668.45c13.896 0 25.174 11.277 25.174 25.174 0 0 1.535 107.652 1.656 106.793 0.391-2.875 74.452 81.108 102.653 112.29 56.415 62.347 131.892 145.758 132.373 259.236C931.375 728.967 744.347 896 514.936 896S93.695 708.25 93.695 478.839c0-26.65 7.543-68.852 17.57-97.865 19.302-55.874 54.654-123.37 106.643-170.632 25.4-31.317 98.603-92.821 106.552-100.184-1.069 1.084-0.647 1.084-0.647-32.837v-175.66c0-13.476 13.882-29.315 39.146-29.661 9.681 0 301.304 0.271 305.73 0.407 13.897 0.421 25.355 16.923 24.934 30.82-0.211 18.263-14.545 28.937-24.662 29.178 0 0-240.372-0.692-267.293-0.286zM358.683 349.536l125.87-125.87c9.47-9.47 24.692-9.86 34.644-0.918l125.87 126.788c10.328 9.305 11.171 32.793 1.866 43.136-9.304 10.329-32.747 9.305-43.075 0l-125.87-124.966 49.7-0.918-125.869 125.87c-9.832 9.831-33.304 9.831-43.136 0-9.832-9.817-9.832-33.29 0-43.122zM472.237 242.337v-225.843h60.224V242.337z"  horiz-adv-x="1024" />

    
    <glyph glyph-name="basis-007" unicode="&#59847;" d="M865.717 630.423h-90.67c14.593 20.736 23.07 45.402 23.07 71.86 0 73.728-65.731 133.482-146.823 133.482-52.314 0-98.229-47.09-124.235-100.292-26.007 53.203-71.921 100.292-124.235 100.292C321.732 835.765 256 776.01 256 702.283c0-26.458 8.463-51.124 23.085-71.875h-90.684c-37.542 0.015-67.93-27.588-67.93-61.636v-574.87c0-34.079 30.418-61.667 67.93-61.667h677.316c37.541 0 67.93 27.603 67.93 61.651V568.772c0 34.063-30.419 61.65-67.93 61.65z m-461.101 147.35c25.615 0 90.352-83.757 90.352-145.573 0-4.202-33.822-5.015-90.352-5.015-49.905 0-90.353 33.702-90.353 75.294s40.448 75.294 90.353 75.294z m93.575-781.252H181.956v256H498.19v-256z m0 318.344H181.956v256H498.19v-256z m153.103 462.712c49.905 0 90.353-33.701 90.353-75.294S701.2 626.99 651.294 626.99c-56.53 0-90.353 0.828-90.353 5.015 0 61.831 64.738 145.573 90.353 145.573z m220.868-781.056H555.927v256h316.235v-256z m0 318.344H555.927v256h316.235v-256z"  horiz-adv-x="1024" />

    
    <glyph glyph-name="business-1" unicode="&#59806;" d="M846.487 22.588c0-16.64-13.614-30.117-30.404-30.117h-608.15a30.283 30.283 0 0 0-30.405 30.117V745.412c0 16.595 13.659 30.117 30.404 30.117h60.808v-90.353c0-33.22 27.271-60.235 60.807-60.235h364.89c33.537 0 60.808 27.016 60.808 60.235V775.53h60.808c16.79 0 30.403-13.522 30.403-30.117v-722.824z m-304.37 133.798V521.26c0 16.79-13.477 30.404-30.117 30.404s-30.118-13.613-30.118-30.404v-364.89c0-16.79 13.478-30.404 30.118-30.404s30.118 13.613 30.118 30.419zM694.438 384H329.563c-16.79 0-30.403-13.478-30.403-30.118s13.613-30.117 30.403-30.117h364.89c16.791 0 30.404 13.477 30.404 30.117S711.243 384 694.438 384z m121.63 451.765H207.933c-50.296 0-91.226-40.539-91.226-90.353v-722.824c0-49.814 40.93-90.353 91.226-90.353h608.15c50.297 0 91.227 40.539 91.227 90.353V745.412c-0.015 49.814-40.945 90.353-91.241 90.353z m-486.505-60.236h364.89v-90.353h-364.89V775.53z"  horiz-adv-x="1024" />

    
    <glyph glyph-name="business-4" unicode="&#59807;" d="M478.372921 350.296921a39.408911 39.408911 0 0 0-2.619994 52.841881L873.861029 889.492705a17.73996 17.73996 0 0 0 31.471929-11.233975l0.076-100.833773 100.848772-0.074999a17.73996 17.73996 0 0 0 11.233975-31.472929l-486.278903-398.215102a39.408911 39.408911 0 0 0-52.840881 2.634994z m-102.09977 288.918348a35.49392 35.49392 0 0 0 30.193932-64.255855 212.97652 212.97652 0 0 1-122.503724-192.872565c0-117.624735 95.352785-212.96152 212.96152-212.961519A212.78052 212.78052 0 0 1 679.378467 272.187097a35.49392 35.49392 0 0 0 60.761863-36.697917 283.73736 283.73736 0 0 0-243.229451-137.35169c-156.822646 0-283.949359 127.126713-283.949359 283.949359a283.933359 283.933359 0 0 0 163.313631 257.12842z m235.821468 226.37949a35.49392 35.49392 0 1 0-16.399963-69.075845 427.158036 427.158036 0 0 1-98.784777 11.504974c-235.233469 0-425.923039-190.68957-425.923039-425.922039s190.68957-425.939039 425.923039-425.939039 425.923039 190.68957 425.923039 425.939039a427.218036 427.218036 0 0 1-11.098975 97.023781 35.49392 35.49392 0 1 0 69.135844 16.096964c8.582981-36.817917 12.949971-74.705831 12.949971-113.135745 0-274.447381-222.478498-496.910879-496.908879-496.910879C222.477498-114.80803 0 107.670468 0 382.101849S222.479498 879.026728 496.909879 879.026728c39.152912 0 77.733825-4.53299 115.18474-13.432969z"  horiz-adv-x="1024" />

    
    <glyph glyph-name="business-2" unicode="&#59808;" d="M299.324 564.706c-16.775 0-30.388 13.478-30.388 30.118s13.598 30.117 30.388 30.117h425.352c16.775 0 30.388-13.477 30.388-30.117s-13.598-30.118-30.388-30.118H299.324z m0-210.824c-16.775 0-30.388 13.478-30.388 30.118s13.598 30.118 30.388 30.118h425.352c16.775 0 30.388-13.478 30.388-30.118s-13.598-30.118-30.388-30.118H299.324z m0-210.823c-16.775 0-30.388 13.477-30.388 30.117s13.598 30.118 30.388 30.118H420.85c16.775 0 30.389-13.478 30.389-30.118s-13.598-30.117-30.39-30.117H299.325zM792.696 110.833a30.57 30.57 0 0 0 42.873-2.982 29.937 29.937 0 0 0-3.012-42.496l-146.085-125.74a30.543 30.543 0 0 0-19.923-7.38H210.733c-52.103 0-94.027 42.707-94.027 94.991V740.774c0 52.284 41.924 94.99 94.027 94.99H812.62c52.104 0 94.028-42.706 94.028-94.99v-531.125c0-16.64-13.599-30.118-30.39-30.118S845.87 193.01 845.87 209.65V740.774c0.015 19.395-15.074 34.755-33.25 34.755H210.733c-18.176 0-33.265-15.36-33.265-34.755v-713.548c0-19.395 15.104-34.755 33.265-34.755h444.431l137.532 118.362zM693.97-36.834c0-16.64-13.597-30.118-30.388-30.118s-30.389 13.478-30.389 30.118V138.451c0 52.224 41.924 94.96 94.028 94.96h149.67c16.775 0 30.388-13.477 30.388-30.117s-13.598-30.118-30.389-30.118H727.22c-18.175 0-33.264-15.36-33.264-34.755v-175.285 0.03z"  horiz-adv-x="1024" />

    
    <glyph glyph-name="business-13" unicode="&#59809;" d="M363.204 232.463h344.741a28.732 28.732 0 0 0 0-57.464H363.204a28.732 28.732 0 1 0 0 57.464z m0 143.646h172.378a28.732 28.732 0 1 0 0-57.464H363.204a28.732 28.732 0 1 0 0 57.464z m312.53 434.417l208.068-208.068a86.197 86.197 0 0 0 25.239-60.943v-423.95a86.182 86.182 0 0 0-86.182-86.182H305.754a86.182 86.182 0 0 0-86.181 86.181v632.02a86.167 86.167 0 0 0 86.181 86.18h309.038c22.859 0 44.77-9.08 60.943-25.238z m-25.253-56.019v-177.302h177.303L650.48 754.507zM602.895 778.3h-297.14a28.732 28.732 0 0 1-28.733-28.732v-632.019c0-15.872 12.86-28.732 28.732-28.732H822.86a28.732 28.732 0 0 1 28.733 28.732V529.604v-9.849H650.48a57.45 57.45 0 0 0-57.45 57.45V778.3h9.864zM634.594-67.765H204.228a89.36 89.36 0 0 0-89.269 89.239v567.13a29.726 29.726 0 0 0 59.452 0v-567.13c0-16.43 13.373-29.802 29.817-29.802h430.366a29.726 29.726 0 0 0 0-59.437z"  horiz-adv-x="1024" />

    
    <glyph glyph-name="business-7" unicode="&#59810;" d="M732.4 409.585l201.232 190.54a102.325 102.325 0 0 1 0 145.03l-50.221 50.056a103.153 103.153 0 0 1-143.616 1.822L543.232 611.012l-190.9 203.294-1.567 1.626a67.403 67.403 0 0 1-95.096 0.422l-0.03-0.03-143.315-142.848a66.831 66.831 0 0 1-1.16-93.184L299.25 380.024l-177.83-168.387a102.445 102.445 0 0 1-29.304-50.944L62.042 32.768a67.825 67.825 0 0 1 50.779-81.513 68.367 68.367 0 0 1 34.68 0.963L271.24-11.46a103.379 103.379 0 0 1 41.818 24.02l175.345 166.038 211.2-224.889 1.566-1.626a67.403 67.403 0 0 1 95.096-0.422l0.03 0.03L939.61 94.54a66.831 66.831 0 0 1 1.16 93.184L732.4 409.585zM309.64 100.548l-93.47 93.154a32.678 32.678 0 0 1-10.15 6.716L670.253 640l97.777-97.46c1.46-1.461 3.283-2.154 4.94-3.268L309.64 100.548zM785.498 749.13a36.593 36.593 0 0 0 50.944-0.662l50.222-50.056c14.275-14.23 14.275-37.255-0.663-52.103l-66.846-63.278c-1.325 2.154-2.32 4.428-4.217 6.325l-96.587 96.271 67.147 63.503zM277.58 499.863a33.07 33.07 0 0 1 22.935 9.592l49.784 49.619a32.979 32.979 0 0 1 0 46.773 33.265 33.265 0 0 1-46.938 0l-49.784-49.62a32.738 32.738 0 0 1-9.262-20.946l-84.675 90.172c-0.527 0.527-0.527 1.054-0.362 1.19L302.592 769.52c0.136 0.135 0.693 0.135 1.295-0.437l191.247-203.64-147.727-139.897-69.828 74.316zM128.753 15.66a1.656 1.656 0 0 0-2.078 1.988l30.072 127.925c1.024 4.306 3.057 8.237 5.512 11.881a32.82 32.82 0 0 1 7.002-10.48l91.573-91.272a36.488 36.488 0 0 0-8.298-3.675l-123.783-36.367z m620.604-17.242c-0.135-0.136-0.693-0.136-1.295 0.437L617.788 137.562a32.527 32.527 0 0 1 14.607 7.966l49.785 49.62a32.979 32.979 0 0 1 0 46.772 33.265 33.265 0 0 1-46.939 0l-49.784-49.619a32.979 32.979 0 0 1-7.575-12.303l-41.381 44.092 147.727 139.897 208.052-221.53c0.497-0.528 0.497-1.055 0.362-1.19L749.357-1.581z"  horiz-adv-x="1024" />

    
    <glyph glyph-name="business-10" unicode="&#59811;" d="M704.708 349.756a64.24 64.24 0 0 1 0-128.467h128.467a64.226 64.226 0 1 1 0 128.467H704.708z m0 64.241h128.467c70.957 0 128.466-57.51 128.466-128.467s-57.51-128.466-128.466-128.466H704.708a128.467 128.467 0 0 0 0 256.933zM338.793 638.81h398.02V739.388a32.12 32.12 0 0 1-43.219 30.133l-354.8-130.71z m-186.353-0.195L671.398 829.8a96.346 96.346 0 0 0 129.656-90.413V638.81h32.12a96.346 96.346 0 0 0 96.347-96.346v-64.24a32.12 32.12 0 0 0-64.241 0v64.24a32.12 32.12 0 0 1-32.12 32.12H158.72a32.12 32.12 0 0 1-32.12-32.12v-513.867c0-17.74 14.38-32.12 32.12-32.12h674.455a32.12 32.12 0 0 1 32.12 32.12v64.24a32.12 32.12 0 0 0 64.241 0v-64.24a96.346 96.346 0 0 0-96.346-96.347H158.72a96.346 96.346 0 0 0-96.346 96.347V542.464a96.361 96.361 0 0 0 90.066 96.15z"  horiz-adv-x="1024" />

    
    <glyph glyph-name="business-5" unicode="&#59812;" d="M507.799 732.943c18.206 0 32.978 14.878 32.978 33.235v66.47A33.13 33.13 0 0 1 507.8 865.882c-18.207 0-32.98-14.878-32.98-33.234v-66.47c0-18.357 14.758-33.235 32.98-33.235zM116.119 615.44c13.1-12.755 33.972-12.378 46.622 0.813 12.348 12.876 12.348 33.295 0 46.17l-46.622 47.03a32.798 32.798 0 0 1-46.623-0.814 33.4 33.4 0 0 1 0-46.17l46.623-47.029z m837.993 60.777a32.783 32.783 0 0 1-46.622 0l-46.622-46.998a33.43 33.43 0 0 1 0.813-46.999 32.783 32.783 0 0 1 45.809 0l46.622 46.999a33.43 33.43 0 0 1 0 46.998z m-34.153-707.629h-49.454V334.155c0 201.894-162.394 365.568-362.691 365.568S145.092 536.05 145.092 334.155v-365.568H95.639c-18.207 0-32.98-14.878-32.98-33.235 0-18.356 14.758-33.234 32.98-33.234h824.32c18.206 0 32.978 14.878 32.978 33.234a33.13 33.13 0 0 1-32.978 33.235z m-379.197 0v132.94c0 18.356-14.757 33.234-32.978 33.234-18.207 0-32.98-14.878-32.98-33.234v-132.94H211.05V334.155c0 165.196 132.85 299.099 296.75 299.099S804.548 499.35 804.548 334.155v-365.568H540.762zM507.8 433.845c-72.84 0-131.886-59.513-131.886-132.94S434.96 167.966 507.8 167.966s131.885 59.513 131.885 132.94-59.046 132.939-131.885 132.939z m0-199.394c-36.428 0.015-65.958 29.786-65.943 66.5 0.015 36.713 29.545 66.47 65.973 66.47 36.427-0.016 65.957-29.787 65.942-66.5-0.015-36.729-29.545-66.485-65.972-66.47z"  horiz-adv-x="1024" />

    
    <glyph glyph-name="business-6" unicode="&#59813;" d="M955.03 305.604a29.515 29.515 0 0 1-42.089 0.03l-0.03-0.03-187.452-189.53-88.47 89.449c-11.626 11.76-30.495 11.76-42.12 0s-11.626-30.826 0-42.587l109.523-110.742a29.515 29.515 0 0 1 42.089-0.03l0.03 0.03 208.52 210.823c11.625 11.746 11.64 30.796 0.03 42.557l-0.03 0.03zM688.67-7.53H152.425c-17.814 0-32.617 15.36-32.617 34.756V740.774c0 19.395 14.803 34.755 32.617 34.755H742.52c17.815 0 32.618-15.36 32.618-34.755v-329.91c0-16.64 13.342-30.117 29.786-30.117a29.967 29.967 0 0 1 29.787 30.118V740.774c0 52.284-41.111 94.99-92.19 94.99H152.424c-51.08 0-92.19-42.706-92.19-94.99v-713.548c0-52.284 41.11-94.99 92.19-94.99h536.23c16.444 0 29.786 13.477 29.786 30.117s-13.327 30.118-29.77 30.118zM239.089 564.706a30.268 30.268 0 0 0-30.389 30.118c0 16.64 13.598 30.117 30.389 30.117H664.44a30.268 30.268 0 0 0 30.39-30.117c0-16.64-13.599-30.118-30.39-30.118H239.09z m0-210.824c-16.776 0-30.389 13.478-30.389 30.118s13.598 30.118 30.389 30.118H664.44c16.776 0 30.39-13.478 30.39-30.118s-13.599-30.118-30.39-30.118H239.09z m0-210.823c-16.776 0-30.389 13.477-30.389 30.117s13.598 30.118 30.389 30.118h121.525c16.775 0 30.388-13.478 30.388-30.118s-13.598-30.117-30.388-30.117H239.089z"  horiz-adv-x="1024" />

    
    <glyph glyph-name="business-3" unicode="&#59814;" d="M447.006-3.223H159.985c-19.275 0-35.298 16.46-35.298 37.24V733.983c0 20.781 16.023 37.24 35.298 37.24h574.027c19.276 0 35.298-16.459 35.298-37.24v-184.004a32.24 32.24 0 0 1 64.452 0V733.982c0 56.019-44.484 101.783-99.75 101.783H159.985c-55.266 0-99.75-45.764-99.75-101.783v-699.98c0-56.003 44.484-101.767 99.75-101.767H446.99c17.8 0 32.226 14.442 32.226 32.271a32.226 32.226 0 0 1-32.21 32.271zM714.511 446.389c-137.653 0-249.254-111.722-249.254-249.54 0-137.818 111.586-249.54 249.254-249.54 137.668-0.015 249.254 111.707 249.254 249.525 0 137.833-111.586 249.555-249.254 249.555z m0-436.706c-103.243 0-186.94 83.787-186.94 187.166C527.57 300.213 611.268 384 714.51 384s186.94-83.787 186.94-187.166c0-103.364-83.697-187.151-186.94-187.151zM807.454 212.435h-77.357v62.389a31.172 31.172 0 1 1-62.313 0v-93.576a31.172 31.172 0 0 1 31.156-31.187h108.514a31.172 31.172 0 0 1 31.157 31.187 31.172 31.172 0 0 1-31.157 31.187zM239.09 564.705c-16.776 0-30.389 13.479-30.389 30.119s13.598 30.117 30.389 30.117H664.44c16.776 0 30.39-13.477 30.39-30.117s-13.599-30.118-30.39-30.118H239.09z m0-210.823A30.268 30.268 0 0 0 208.7 384c0 16.64 13.598 30.118 30.389 30.118h229.587A30.268 30.268 0 0 0 499.064 384c0-16.64-13.598-30.118-30.388-30.118H239.089z"  horiz-adv-x="1024" />

    
    <glyph glyph-name="business-8" unicode="&#59815;" d="M658.281 530.281a36.563 36.563 0 0 0 36.563-36.562V274.28a36.563 36.563 0 1 0-73.14 0V493.704a36.593 36.593 0 0 0 36.577 36.577z m146.297-73.14a36.563 36.563 0 0 0 36.563-36.563v-73.14a36.578 36.578 0 1 0-73.141 0v73.14a36.563 36.563 0 0 0 36.578 36.563z m-585.156 0A36.578 36.578 0 0 0 256 420.578v-73.14a36.578 36.578 0 1 0-73.14 0v73.14a36.563 36.563 0 0 0 36.562 36.563z m146.297 73.14a36.563 36.563 0 0 0 36.562-36.562V274.28a36.563 36.563 0 1 0-73.14 0V493.704a36.563 36.563 0 0 0 36.578 36.577zM512 640a36.563 36.563 0 0 0 36.563-36.563v-438.86a36.563 36.563 0 1 0-73.14 0V603.423A36.593 36.593 0 0 0 512 640z m0-694.86c242.372 0 438.86 196.488 438.86 438.86S754.371 822.86 512 822.86 73.14 626.371 73.14 384 269.629-54.86 512-54.86z m0-73.14C229.225-128 0 101.225 0 384S229.225 896 512 896s512-229.225 512-512-229.225-512-512-512z"  horiz-adv-x="1024" />

    
    <glyph glyph-name="business-16" unicode="&#59816;" d="M849.318 109.704a80.233 80.233 0 0 1-73.533-48.4H622.803a112.49 112.49 0 0 1-78.683 91.543V287.172h192.753c53.143 0 96.377 43.43 96.377 96.798s-43.234 96.798-96.377 96.798H287.127c-53.143 0-96.377-43.43-96.377-96.798s43.234-96.798 96.377-96.798H479.88v-134.325a112.43 112.43 0 0 1-78.683-91.543H248.215a80.113 80.113 0 0 1-105.578 41.804 80.625 80.625 0 0 1-48.263-74.06c0.09-44.544 36.126-80.594 80.474-80.504a80.264 80.264 0 0 1 73.367 48.233h162.62C428.95-41.246 467.32-67.765 512-67.765s83.05 26.519 101.165 64.527h162.62a80.113 80.113 0 0 1 105.578-41.803 80.625 80.625 0 0 1 48.263 74.06c0 44.573-35.96 80.685-80.308 80.685zM287.127 351.699a32.24 32.24 0 0 0-30.69 33.717 32.226 32.226 0 0 0 30.69 30.825h449.746a32.24 32.24 0 0 0 30.69-33.717 32.226 32.226 0 0 0-30.69-30.825H287.127zM512-3.238c-26.564 0-48.188 21.715-48.188 48.4S485.436 93.56 512 93.56s48.188-21.714 48.188-48.399-21.624-48.399-48.188-48.399z m-240.941 161.34h91.844a32.196 32.196 0 0 1 32.12 32.272 32.196 32.196 0 0 1-32.12 32.27h-91.844c-97.536 0.106-176.58 79.496-176.685 177.469-0.437 87.477 62.976 162.063 149.067 175.33l19.11 2.997 6.264 18.386C304.445 701.11 402.161 771.162 512 771.162c109.809 0.03 207.51-70.008 243.155-174.336l6.294-18.386 19.11-2.997c86.076-13.267 149.489-87.868 149.067-175.33 0-97.837-79.284-177.468-176.685-177.468h-97.656a32.196 32.196 0 0 1-32.12-32.271c0-17.815 14.38-32.271 32.12-32.271h97.656c132.864 0 240.941 108.544 240.941 241.995 0.558 112.038-75.956 209.634-184.53 235.354C741.948 800.392 554.165 879.21 389.963 811.49A322.138 322.138 0 0 1 214.68 635.437C106.104 609.732 29.56 512.151 30.118 400.097c0-133.45 108.077-241.994 240.94-241.994z"  horiz-adv-x="1024" />

    
    <glyph glyph-name="business-15" unicode="&#59817;" d="M912.64 666.744a33.28 33.28 0 0 0-23.612 9.789L788.872 776.689a33.34 33.34 0 0 0 0 47.21 33.34 33.34 0 0 0 47.209 0l100.156-100.157a33.34 33.34 0 0 0 0-47.21 33.28 33.28 0 0 0-23.597-9.788z m-800.015 2.079a33.22 33.22 0 0 0-23.597 9.788 33.34 33.34 0 0 0 0 47.21L189.184 825.975c13.056 13.056 34.153 13.056 47.21 0s13.055-34.153 0-47.209L136.236 678.611a33.19 33.19 0 0 0-23.612-9.788z m623.3-125.832a33.34 33.34 0 0 1 0 47.21 33.34 33.34 0 0 1-47.21 0L555.174 456.658c-0.106-0.06-0.106-0.196-0.196-0.301a98.997 98.997 0 0 1-42.963 10.09 98.74 98.74 0 0 1-42.963-10.09c-0.06 0.105-0.105 0.195-0.196 0.3L368.7 556.816c-13.056 13.056-34.153 13.056-47.21 0s-13.055-34.153 0-47.21L421.648 409.45c0.06-0.06 0.196-0.105 0.301-0.195a98.696 98.696 0 0 1-10.09-42.963 100.277 100.277 0 0 1 100.157-100.156c55.22 0 100.156 44.965 100.156 100.156a98.74 98.74 0 0 1-10.09 42.963c0.106 0.06 0.197 0.105 0.302 0.195l133.542 133.542zM512 332.845a33.43 33.43 0 0 0-33.385 33.386A33.43 33.43 0 0 0 512 399.616c18.402 0 33.385-14.984 33.385-33.385S530.387 332.845 512 332.845z m310.8-268.89c76.091 78.155 123.225 184.832 123.225 302.32 0 239.316-194.71 434.026-434.025 434.026S77.96 605.591 77.96 366.261c0-118.287 47.676-225.566 124.702-303.963l-51.02-77.191a33.37 33.37 0 0 1 27.799-51.787c10.857 0 21.474 5.21 27.874 14.953l46.276 70.084c72.312-53.805 161.55-86.122 258.409-86.122 97.626 0 187.543 32.783 260.126 87.447l47.345-69.451a33.446 33.446 0 0 1 27.618-14.592c6.475 0 13.026 1.942 18.763 5.842a33.4 33.4 0 0 1 8.81 46.382l-51.863 76.092zM144.744 366.26c0 202.496 164.759 367.254 367.255 367.254 202.466 0 367.255-164.758 367.255-367.254S714.45-0.994 512-0.994c-202.496-0.03-367.255 164.774-367.255 367.255z"  horiz-adv-x="1024" />

    
    <glyph glyph-name="business-12" unicode="&#59818;" d="M618.165 166.882H547.93V446.494c0 5.075-3.418 9.231-7.59 9.231h-56.876c-4.172 0-7.59-4.156-7.59-9.23v-279.598h-70.039c-6.355 0-9.863-8.885-5.978-14.893l106.165-163.509c3.026-4.728 8.914-4.728 11.941 0l106.165 163.509c3.885 5.993 0.376 14.878-5.963 14.878zM854.167 544.18C801.822 683.792 668.46 783.06 512.226 783.06S222.63 683.896 170.286 544.3C72.342 518.295 0 428.152 0 320.798c0-121.57 106.345-221.139 225.416-230.43 9.562-0.753 16.007 19.848 15.525 29.44v21.61c0 8.884-7.198 16.082-16.068 16.082h-14.17c-40.192 0-77.96 16.053-106.39 45.192-28.417 29.124-44.078 67.975-44.078 109.176 0 34.861 11.053 67.6 31.82 94.991 20.284 26.519 48.82 45.81 80.278 54.408l46.02 12.318 16.88 45.568a301.387 301.387 0 0 0 43.355 78.923 301.598 301.598 0 0 0 63.639 62.118c49.92 35.975 108.694 55.025 170.014 55.025s120.11-19.05 170.014-55.025c41.367-29.832 74.541-69.858 97.1-116.992 3.749-7.816 6.881-15.917 9.893-24.05l16.76-45.432 45.9-12.453c65.957-18.056 111.857-79.435 111.857-149.399 0-41.2-15.661-80.052-44.077-109.176a148.872 148.872 0 0 0-65.22-39.349c-6.732-1.958-11.174-8.388-11.174-15.39v-28.476c0-14.472 10.842-22.333 21.384-18.96C957.048 130.139 1024 217.496 1024 320.799c0 107.129-72.117 197.27-169.833 223.383z"  horiz-adv-x="1024" />

    
    <glyph glyph-name="business-14" unicode="&#59819;" d="M731.768 725.459c-106.51 0-193.144-88.034-193.144-196.262 0-77.96 93.425-200.794 149.097-267.068a57.314 57.314 0 0 1 44.047-20.66h0.016c16.986 0 33.039 7.529 44.047 20.645 55.687 66.274 149.112 189.124 149.112 267.083 0 108.213-86.648 196.262-193.175 196.262z m4.157-416.738c-1.928-2.274-6.37-2.259-8.268-0.015-78.622 93.56-127.457 176.82-127.457 217.223 0 73.864 59.03 133.964 131.568 133.964v-0.015c72.539 0 131.57-60.1 131.6-133.964 0-40.418-48.851-123.648-127.443-217.193zM731.768 631.055a74.496 74.496 0 0 1-74.39-74.406 74.496 74.496 0 0 1 74.406-74.39h0.015a74.571 74.571 0 0 1 74.375 74.405 74.48 74.48 0 0 1-74.406 74.391z m0.016-105.231a30.825 30.825 0 0 0-0.016 61.62 30.9 30.9 0 0 0 30.826-30.81 30.856 30.856 0 0 0-30.81-30.81zM963.765 683.113v29.772c0 53.413-46.517 100.156-99.66 100.156h-704.21c-53.143 0.015-99.66-46.728-99.66-100.141v-494.125c0-53.414 46.517-100.157 99.66-100.157H864.12c53.158 0 99.66 46.743 99.66 100.157v59.979c0 13.372-7.53 28.521-31.368 29.154-13.282 0.346-29.32-9.126-29.32-29.154v-59.98c0-26.714-19.937-39.213-46.516-39.213H167.424c-26.579 0-46.517 12.5-46.517 39.214V705.37c0 26.715 19.938 46.743 46.517 46.743h689.167c26.579 0 46.517-20.028 46.517-46.743v-19.185c0-13.357 10.466-28.16 30.554-28.16 13.252-0.015 31.353 8.78 30.103 25.088zM187.528 261.406h299.655c14.984 0 29.967 15.044 29.967 30.118s-14.983 30.117-29.967 30.117H187.528c-14.984 0-29.968-15.043-29.968-30.117s14.984-30.118 29.968-30.118z m178.19 157.44c14.984 0 29.968 15.044 29.968 30.118 0 15.044-14.984 30.117-29.967 30.117H192.12c-14.983 0-29.967-15.043-29.967-30.117s14.984-30.118 29.967-30.118H365.72zM811.657 15.18H212.36c-14.984 0-29.968-15.043-29.968-30.117s14.984-30.118 29.968-30.118h599.28c14.984 0 29.968 15.044 29.968 30.118s-14.969 30.117-29.952 30.117z"  horiz-adv-x="1024" />

    
    <glyph glyph-name="business-19" unicode="&#59820;" d="M962.952 728.245a31.563 31.563 0 0 1-37.873 23.326L760.5 713.894a31.172 31.172 0 0 1-23.643-37.422 31.1 31.1 0 0 1 8.042-14.637l35.915-36.713L588.92 455.936l-99.644 93.274a31.82 31.82 0 0 1-44.529-1.13l-213.79-221.544c-34.123 7.047-67.569-14.577-74.707-48.31-7.122-33.73 14.758-66.785 48.881-73.833s67.57 14.577 74.707 48.31a61.44 61.44 0 0 1 1.34 12.754c0 6.761-1.355 13.131-3.373 19.215l190.9 197.828 97.883-91.588c11.912-11.144 30.464-11.415 42.707-0.617L824.712 580.2l40.944-41.893a31.834 31.834 0 0 1 44.635-0.768 31.232 31.232 0 0 1 8.553 14.336L962.68 713.11a30.838 30.838 0 0 1 0.272 15.134z m-50.493-284.266c-17.438 0-31.563-13.96-31.563-31.187v-247.145c0-17.227-14.125-31.187-31.563-31.187H154.925c-17.438 0-31.563 13.96-31.563 31.187V727.13c0 17.228 14.125 31.187 31.563 31.187H678.34c17.438 0 31.563 13.96 31.563 31.187s-14.125 31.202-31.563 31.202H154.925c-52.3 0-94.69-41.894-94.69-93.576v-561.483c0-51.682 42.39-93.575 94.69-93.575h694.393c52.299 0 94.69 41.893 94.69 93.575V412.792c0.015 17.228-14.126 31.187-31.549 31.187z m-15.781-434.296H107.58c-17.438 0-31.563-13.96-31.563-31.187 0-17.242 14.125-31.202 31.563-31.202h789.098c17.438 0 31.563 13.96 31.563 31.187s-14.14 31.202-31.563 31.202z"  horiz-adv-x="1024" />

    
    <glyph glyph-name="business-22" unicode="&#59821;" d="M608.376 254.93h32.136c17.74 0 32.12-14.44 32.12-32.27v-32.271a32.196 32.196 0 0 0-32.12-32.271h-32.136a32.196 32.196 0 0 0-32.12 32.27V222.66c0 17.814 14.381 32.27 32.12 32.27z m-224.873 0h32.12c17.74 0 32.121-14.44 32.121-32.27v-32.271a32.196 32.196 0 0 0-32.12-32.271h-32.136a32.196 32.196 0 0 0-32.12 32.27V222.66c0 17.814 14.38 32.27 32.135 32.27z m224.873 193.612h32.136c17.74 0 32.12-14.441 32.12-32.27V384a32.196 32.196 0 0 0-32.12-32.271h-32.136A32.196 32.196 0 0 0 576.256 384v32.271c0 17.815 14.381 32.271 32.12 32.271z m-224.873 0h32.12c17.74 0 32.121-14.441 32.121-32.27V384a32.196 32.196 0 0 0-32.12-32.271h-32.136A32.196 32.196 0 0 0 351.368 384v32.271c0 17.815 14.38 32.271 32.135 32.271z m224.873 193.611h32.136c17.74 0 32.12-14.441 32.12-32.27v-32.272a32.196 32.196 0 0 0-32.12-32.27h-32.136a32.196 32.196 0 0 0-32.12 32.27v32.271c0 17.815 14.381 32.271 32.12 32.271z m-224.873 0h32.12c17.74 0 32.121-14.441 32.121-32.27v-32.272a32.196 32.196 0 0 0-32.12-32.27h-32.136a32.196 32.196 0 0 0-32.12 32.27v32.271c0 17.815 14.38 32.271 32.135 32.271zM801.13-3.223V738.952a32.196 32.196 0 0 1-32.12 32.27H254.99c-17.74 0-32.12-14.456-32.12-32.27v-742.19l578.258 0.015z m64.241 0h96.377c17.74 0 32.135-14.441 32.135-32.27a32.196 32.196 0 0 0-32.135-32.272H62.238c-17.74 0-32.12 14.442-32.12 32.271s14.38 32.271 32.12 32.271h96.377V738.952c0 53.458 43.143 96.813 96.376 96.813h514.003c53.218 0 96.376-43.34 96.376-96.813v-742.175z"  horiz-adv-x="1024" />

    
    <glyph glyph-name="business-20" unicode="&#59822;" d="M608.813 480.376h207.044l134.19 116.57a15.782 15.782 0 0 1 0 23.854l-134.19 116.57H608.813V850.04c0 8.75-7.093 15.842-15.842 15.842H431.03c-8.75 0-15.842-7.092-15.842-15.842v-112.67H122.684a30.268 30.268 0 0 1-30.178-30.178v-196.788c0-16.595 13.448-30.043 30.043-30.043h292.653v-64.256H208.158l-134.19-116.57a15.782 15.782 0 0 1 0-23.853l134.19-116.57h207.044v-241.168c0-8.749 7.093-15.841 15.842-15.841h161.942c8.75 0 15.842 7.092 15.842 15.841V159.127h292.518a30.268 30.268 0 0 1 30.178 30.177V386.078a30.042 30.042 0 0 1-30.043 30.042H608.813v64.256zM479.73 801.626h64.542v-64.256H479.73V801.626z m-322.68-256.994V673.13h634.639l60.235-52.314a15.782 15.782 0 0 0 0-23.853l-60.235-52.314h-634.64z m322.68-64.256h64.542v-64.256H479.73v64.256z m64.542-514.002H479.73V159.127h64.542v-192.753z m322.68 385.506v-128.497H232.329l-60.236 52.314a15.782 15.782 0 0 0 0 23.853l60.236 52.314h634.624z"  horiz-adv-x="1024" />

    
    <glyph glyph-name="business-9" unicode="&#59823;" d="M68.442 244.646a68.442 68.442 0 1 0 0 136.884 68.442 68.442 0 0 0 0-136.884z m444.898-68.458c113.408 0 205.342 91.934 205.342 205.342S626.748 586.872 513.34 586.872 308.013 494.938 308.013 381.53c0-113.408 91.92-205.342 205.327-205.342z m0-68.442c-151.205 0-273.784 122.579-273.784 273.784S362.135 655.315 513.34 655.315 787.125 532.736 787.125 381.53 664.545 107.746 513.34 107.746z m374.076 73.638a34.229 34.229 0 0 0-0.436 29.41 409.028 409.028 0 0 1 37.06 170.721c0 226.816-183.869 410.685-410.685 410.685-179.636 0-336.82-116.39-391.002-284.718a34.229 34.229 0 0 0-65.16 20.977C120.41 724.887 303.767 860.657 513.34 860.657c264.614 0 479.127-214.513 479.127-479.127 0-64-12.574-126.283-36.638-184.079l64.602-130.635a34.229 34.229 0 0 0-28.476-49.318l-181.248-11.685A477.2 477.2 0 0 0 513.37-97.581c-164.954 0-315.587 84.043-403.2 220.19a34.229 34.229 0 0 0 57.555 37.045c75.129-116.766 204.213-188.793 345.63-188.793a408.772 408.772 0 0 1 262.37 94.72 34.24 34.24 0 0 0 19.667 7.846l140.92 9.08-48.896 98.877z"  horiz-adv-x="1024" />

    
    <glyph glyph-name="business-28" unicode="&#59824;" d="M461.854-96.934c5.557-1.686 11.851-1.204 17.664 2.184a23.597 23.597 0 0 0-17.664-2.184z m17.65 2.199a22 22 0 0 0-17.665-2.184c6.054-1.701 12.348-0.737 17.664 2.184zM349.966 357.436L179.832 459.4a28.536 28.536 0 0 1-39.424-9.789 28.928 28.928 0 0 1 9.789-39.71L320.33 307.938a28.37 28.37 0 0 1 39.424 10.074 28.536 28.536 0 0 1-9.788 39.424zM894.75 655.315L478.69 863.337a23.567 23.567 0 0 1-21.293 0L41.337 655.315C25.855 645.15 28.28 622.652 28.28 620.243v-443.874c0-8.222 4.352-15.962 11.37-20.314 0 0 407.115-246.001 414.133-249.149 14.275-7.017 23.22-5.074 29.997-1.686l135.469 78.38c11.61 6.777 25.931 24.17 15.51 42.06-11.565 19.863-28.34 20.796-39.71 14.26l-93.62-54.422v0.241l-9.683-5.315V377.073l368.158 209.001 37.692 22.83c7.545 4.909 9.502 15.555 10.496 20.028 0.98 9.156-3.915 21.549-13.342 26.383zM427.806-4.563L84.48 197.813V565.549l343.326-190.705v-379.407z m40.237 442.007l-343.16 194.605 343.16 171.46 343.16-171.46-343.16-194.605z m516.202-80.505l-4.834 2.425c-0.482 0.24-1.205 0.24-1.687 0.24h1.446l-185.54 92.643a18.96 18.96 0 0 1-16.203 0l-185.299-92.642c-13.553-5.196-16.926-16.806-16.926-23.341v-205.011c0-6.536 3.388-12.333 8.945-15.722 0 0 189.139-113.468 190.102-113.709 0-0.03 11.28-8.373 22.031-0.949l190.856 114.658c5.316 3.389 8.704 9.186 8.704 15.722V341.459c0.015 7.394-5.542 12.574-11.595 15.48zM760.65 58.88l-142.306 85.835V298.933l142.306-80.535V58.88z m24.998 199.71l-142.426 80.836 142.426 71.093 142.2-71.093-142.2-80.836z m167.198-113.935L810.541 58.91V218.458l142.306 80.655v-154.458z"  horiz-adv-x="1024" />

    
    <glyph glyph-name="business-23" unicode="&#59825;" d="M715.686 474.353H308.314c-4.668 0-8.493-4.156-8.493-9.216v-463.435c0-5.075 3.825-9.216 8.493-9.216h407.357c4.668 0 8.493 4.156 8.493 9.216V465.137c0 5.06-3.81 9.216-8.478 9.216z m-352.934-60.235h301.176v-148.42H362.752v148.42z m301.176-361.412H362.752v148.42h301.176v-148.42z m-266.21 73.487c0-20.375 16.37-36.894 36.578-36.894s36.578 16.52 36.578 36.894c0 20.375-16.369 36.894-36.578 36.894s-36.577-16.52-36.577-36.894z m0 205.207c0-20.375 16.37-36.895 36.578-36.895s36.578 16.52 36.578 36.895c0 20.374-16.369 36.894-36.578 36.894s-36.577-16.52-36.577-36.894zM854.168 536.65C801.822 676.261 668.46 775.53 512.226 775.53s-289.596-99.162-341.94-238.757C72.342 510.765 0 420.623 0 313.269c0-121.57 106.345-221.14 225.416-230.43 9.562-0.753 16.007 19.847 15.525 29.44v21.609c0 8.885-7.198 16.083-16.068 16.083h-14.17c-40.192 0-77.96 16.053-106.39 45.191-28.417 29.124-44.078 67.976-44.078 109.177 0 34.861 11.053 67.599 31.82 94.99 20.284 26.52 48.82 45.81 80.278 54.408l46.02 12.319 16.88 45.568a301.387 301.387 0 0 0 43.355 78.923 301.598 301.598 0 0 0 63.639 62.117c49.92 35.976 108.694 55.025 170.014 55.025s120.11-19.049 170.014-55.025c41.367-29.831 74.541-69.857 97.1-116.992 3.749-7.815 6.881-15.917 9.893-24.048l16.76-45.433 45.9-12.454c65.957-18.055 111.857-79.435 111.857-149.398 0-41.201-15.661-80.053-44.077-109.177a148.872 148.872 0 0 0-65.22-39.348c-6.732-1.958-11.174-8.388-11.174-15.39v-28.477c0-14.471 10.842-22.332 21.384-18.959C957.048 122.608 1024 209.965 1024 313.268c0 107.13-72.117 197.271-169.833 223.383z"  horiz-adv-x="1024" />

    
    <glyph glyph-name="business-25" unicode="&#59826;" d="M357.602 217.886a157.59 157.59 0 0 0 45.146 102.626 153.856 153.856 0 0 0 109.719 46.11c41.366 0 80.339-16.339 109.718-46.11 1.597-1.626 3.087-3.238 4.684-4.984l-28.567-22.71a9.321 9.321 0 0 1 3.434-16.338l112.233-27.799c5.707-1.385 11.31 3.012 11.31 8.915l0.556 117.369c0 7.755-8.689 12.167-14.742 7.303l-26.519-21.082c-41.833 48.655-103.318 79.465-172.002 79.465-122.744 0-222.855-98.575-227.885-222.057a9.17 9.17 0 0 1 9.14-9.608h54.74a9.276 9.276 0 0 1 9.035 8.9z m372.676-8.794h-54.74a9.291 9.291 0 0 1-9.14-8.81 157.59 157.59 0 0 0-45.146-102.626 153.856 153.856 0 0 0-109.719-46.11c-41.366 0-80.339 16.34-109.718 46.11a189.018 189.018 0 0 0-4.684 4.985l28.567 22.709a9.321 9.321 0 0 1-3.434 16.338l-112.233 27.8a9.2 9.2 0 0 1-11.31-8.916l-0.45-117.459c0-7.755 8.688-12.167 14.742-7.303l26.518 21.082c41.849-48.67 103.334-79.48 172.017-79.48 122.745 0 222.856 98.575 227.885 222.057a9.186 9.186 0 0 1-9.155 9.623z m123.889 327.56c-52.345 139.61-185.706 238.877-341.941 238.877s-289.596-99.162-341.94-238.757C72.342 510.765 0 420.623 0 313.269c0-121.57 106.345-221.14 225.416-230.43 9.562-0.753 16.007 19.847 15.525 29.44v21.609c0 8.885-7.198 16.083-16.068 16.083h-14.17c-40.192 0-77.96 16.053-106.39 45.191-28.417 29.124-44.078 67.976-44.078 109.177 0 34.861 11.053 67.599 31.82 94.99 20.284 26.52 48.82 45.81 80.278 54.408l46.02 12.319 16.88 45.568a301.387 301.387 0 0 0 43.355 78.923 301.598 301.598 0 0 0 63.639 62.117c49.92 35.976 108.694 55.025 170.014 55.025s120.11-19.049 170.014-55.025c41.367-29.831 74.541-69.857 97.1-116.992 3.749-7.815 6.881-15.917 9.893-24.048l16.76-45.433 45.9-12.454c65.957-18.055 111.857-79.435 111.857-149.398 0-41.201-15.661-80.053-44.077-109.177a148.872 148.872 0 0 0-65.22-39.348c-6.732-1.958-11.174-8.388-11.174-15.39v-28.477c0-14.471 10.842-22.332 21.384-18.959C957.048 122.608 1024 209.965 1024 313.268c0 107.13-72.117 197.271-169.833 223.383z"  horiz-adv-x="1024" />

    
    <glyph glyph-name="business-21" unicode="&#59827;" d="M876.71 557.9h-37.693l-12.483 49.558a86.92 86.92 0 0 1-84.42 65.702H488.719c-6.19 0-12.348 2.032-17.303 5.707l-86.98 64.482a87.793 87.793 0 0 1-51.892 17.122h-184.11c-48.007 0-87.054-38.973-87.054-86.905v-567.1c-0.557-3.976-1.145-7.966-1.145-12.032 0-47.917 39.048-86.905 87.055-86.905h603.663a86.935 86.935 0 0 1 82.583 59.423l125.741 376.576a86.046 86.046 0 0 1 4.488 27.467c0 47.917-39.048 86.904-87.055 86.904zM148.435 702.54h184.109c6.174 0 12.333-2.034 17.303-5.708l86.98-64.482a87.793 87.793 0 0 1 51.907-17.107H742.1a28.968 28.968 0 0 0 28.13-21.91l8.93-35.419h-480.98a86.633 86.633 0 0 1-80.835-54.633l-97.928-244.42V673.566c0 15.978 13.026 28.973 29.019 28.973z m755.802-240.7L778.481 85.262a29.018 29.018 0 0 0-27.528-19.802H147.29c-14.998 0-26.91 11.505-28.43 26.082 0.09 0.963 0.556 1.792 0.556 2.77v6.054c0.347 1.611 0.317 3.283 0.934 4.819l150.905 376.576a29.018 29.018 0 0 0 26.94 18.206H876.71a28.988 28.988 0 0 0 27.527-38.129z m0 0"  horiz-adv-x="1024" />

    
    <glyph glyph-name="business-18" unicode="&#59828;" d="M655.962 519.153H605.14a8.9 8.9 0 0 1-8.011-4.97l-82.9-164.216h-3.162l-82.898 164.217a9.005 9.005 0 0 1-8.012 4.969h-51.953a8.072 8.072 0 0 1-4.291-1.13 9.08 9.08 0 0 1-3.615-12.303l95.775-175.902a6.31 6.31 0 0 0-5.542-9.321h-37.963c-8.433 0-15.345-6.912-15.345-15.345v-11.445c0-8.433 6.912-15.345 15.345-15.345h60.913a6.325 6.325 0 0 0 6.31-6.31v-25.449a6.325 6.325 0 0 0-6.31-6.31h-60.913c-8.433 0-15.345-6.911-15.345-15.344v-11.445c0-8.433 6.912-15.345 15.345-15.345h60.913a6.325 6.325 0 0 0 6.31-6.31v-48.143c0-8.433 6.911-15.345 15.344-15.345h34.033c8.433 0 15.345 6.912 15.345 15.345V191.85a6.325 6.325 0 0 0 6.31 6.31h61.244c8.433 0 15.345 6.912 15.345 15.345v11.445c0 8.433-6.912 15.345-15.345 15.345h-61.244a6.325 6.325 0 0 0-6.31 6.31v25.449a6.325 6.325 0 0 0 6.31 6.31h61.244c8.433 0 15.345 6.911 15.345 15.344v11.445c0 8.433-6.912 15.345-15.345 15.345H573.53a6.31 6.31 0 0 0-5.541 9.321l95.789 176.008a9.743 9.743 0 0 1 1.13 4.292 8.855 8.855 0 0 1-8.946 9.035z m211.02 252.07H802.44a32.256 32.256 0 1 1 0-64.543h64.542c17.814 0 32.27-14.44 32.27-32.27v-645.377a32.256 32.256 0 0 0-32.27-32.27H157.079a32.256 32.256 0 0 0-32.271 32.27V674.424c0 17.83 14.456 32.272 32.27 32.272h64.528a32.256 32.256 0 1 1 0 64.542h-64.527a96.843 96.843 0 0 1-96.814-96.814v-645.376a96.813 96.813 0 0 1 96.814-96.813h709.918a96.798 96.798 0 0 1 96.798 96.798V674.424a96.798 96.798 0 0 1-96.813 96.799c0.015 0 0.015 0 0 0z m-548.563-129.07a32.256 32.256 0 0 1 32.27 32.241v129.1a32.271 32.271 0 0 1-64.541 0v-129.085c0-17.814 14.441-32.256 32.27-32.256z m96.798 64.543h193.611a32.271 32.271 0 0 1 0 64.542H415.217a32.286 32.286 0 0 1 0-64.542z m290.424-64.543a32.256 32.256 0 0 1 32.271 32.271V803.494a32.256 32.256 0 1 1-64.542 0v-129.085c0-17.814 14.457-32.256 32.271-32.256z"  horiz-adv-x="1024" />

    
    <glyph glyph-name="business-29" unicode="&#59829;" d="M954.579 641.672l-421 218.925a46.833 46.833 0 0 1-42.993 0.12L69.707 645.195a46.607 46.607 0 0 1-25.419-41.472v-445.74a46.682 46.682 0 0 1 25.916-41.759l420.94-209.227a46.923 46.923 0 0 1 41.712 0l420.94 209.227a46.637 46.637 0 0 1 25.916 41.713V600.305a46.637 46.637 0 0 1-25.133 41.367zM508.476 430.938L350.45 508.476l357.948 191.097 154.338-80.264-354.259-188.37z m3.404 370.809l129.58-67.403-359.86-192.12-141.192 69.3L511.88 801.747zM106.647 558.773l149.293-73.246v-163.464c0-17.167 13.96-31.081 31.187-31.081a31.127 31.127 0 0 1 31.186 31.081V454.897l162.515-79.676v-393.638L106.647 167.59V558.773z m436.54-577.175V378.955l374.166 198.897V167.59L543.187-18.402z"  horiz-adv-x="1024" />

    
    <glyph glyph-name="business-27" unicode="&#59830;" d="M837.015-51.095a24.17 24.17 0 0 0-24.185 24.185V154.64a24.22 24.22 0 0 0 7.514 17.528l120.561 114.657c3.51 3.51 5.557 8.494 5.557 13.975 0 11.249-9.17 20.39-20.405 20.39H633.404c-11.249 0-20.404-9.141-20.404-20.39 0-5.512 2.108-10.526 6.098-14.517l111.225-115.05a24.1 24.1 0 0 0 6.791-16.805v-133.617c0-13.372-10.812-24.184-24.184-24.184a24.17 24.17 0 0 0-24.185 24.184V144.655L584.614 252.371a68.216 68.216 0 0 0-19.983 48.414 68.849 68.849 0 0 0 68.788 68.759h292.684a68.849 68.849 0 0 0 68.788-68.76 68.262 68.262 0 0 0-20.163-48.609L861.259 144.233V-26.94a24.245 24.245 0 0 0-24.244-24.155zM350.96 357.436L180.826 459.4a28.536 28.536 0 0 1-39.424-9.789 28.928 28.928 0 0 1 9.789-39.71l170.134-101.963a28.37 28.37 0 0 1 39.424 10.074 28.552 28.552 0 0 1-9.788 39.424z m544.798 297.879L479.684 863.337a23.567 23.567 0 0 1-21.293 0L42.33 655.315c-15.481-10.165-13.057-32.663-13.057-35.072v-443.904c0-8.222 4.352-15.963 11.37-20.315 0 0 407.115-246.016 414.132-249.163 14.276-7.017 23.221-5.075 29.998-1.686l135.469 78.38c11.61 6.777 25.931 24.17 15.51 42.06-11.565 19.863-28.34 20.796-39.71 14.26l-93.62-54.422v0.241l-9.683-5.316v396.65l368.173 209.001 37.692 22.83c7.545 4.909 9.502 15.555 10.496 20.028 0.979 9.2-3.915 21.579-13.342 26.428zM428.8-4.578L85.459 197.798V565.549L428.8 374.844v-379.422z m40.237 442.007l-343.16 194.605 343.16 171.475 343.16-171.475-343.16-194.605z"  horiz-adv-x="1024" />

    
    <glyph glyph-name="business-24" unicode="&#59831;" d="M517.978 452.744c-3.026 4.728-8.914 4.728-11.941 0L399.872 289.069c-3.885-6.008-0.376-14.893 5.978-14.893h70.039v-279.989c0-5.09 3.418-9.246 7.59-9.246h56.877c4.171 0 7.59 4.156 7.59 9.246V274.056h70.234c6.355 0 9.863 8.9 5.978 14.893l-106.18 163.795z m336.189 91.437C801.822 683.79 668.46 783.059 512.226 783.059S222.63 683.896 170.286 544.3C72.342 518.295 0 428.152 0 320.798c0-121.57 106.345-221.139 225.416-230.43 9.562-0.753 16.007 19.848 15.525 29.44v21.61c0 8.884-7.198 16.082-16.068 16.082h-14.17c-40.192 0-77.96 16.053-106.39 45.192-28.417 29.124-44.078 67.975-44.078 109.176 0 34.861 11.053 67.6 31.82 94.991 20.284 26.519 48.82 45.81 80.278 54.408l46.02 12.318 16.88 45.568a301.387 301.387 0 0 0 43.355 78.923 301.598 301.598 0 0 0 63.639 62.118c49.92 35.975 108.694 55.025 170.014 55.025s120.11-19.05 170.014-55.025c41.367-29.832 74.541-69.858 97.1-116.992 3.749-7.816 6.881-15.917 9.893-24.05l16.76-45.432 45.9-12.453c65.957-18.056 111.857-79.435 111.857-149.399 0-41.2-15.661-80.052-44.077-109.176a148.872 148.872 0 0 0-65.22-39.349c-6.732-1.958-11.174-8.388-11.174-15.39v-28.476c0-14.472 10.842-22.333 21.384-18.96C957.048 130.139 1024 217.496 1024 320.799c0 107.129-72.117 197.27-169.833 223.383z"  horiz-adv-x="1024" />

    
    <glyph glyph-name="business-26" unicode="&#59832;" d="M845.448 167.981c-63.142 0-117.625-44.137-130.545-105.743l-331.671 0.06c-8.704 5.783-14.005 45.297-17.137 72.448h96.271c15.21-20.073 39.153-33.234 66.32-33.234 46.034 0.015 83.35 37.21 83.35 83.094-0.015 45.884-37.346 83.08-83.38 83.065a83.305 83.305 0 0 1-81.665-66.47H357.12c-12.107 65.566-39.951 132.94-127.277 132.94H78.517c-18.417 0.014-33.34-14.864-33.34-33.22s14.923-33.235 33.34-33.235h151.356c33.671 0 49.122-20.54 59.09-66.47H78.518c-18.417 0-33.34-14.878-33.34-33.235s14.923-33.235 33.34-33.235h220.446c7.002-62.373 16.233-138.978 85.7-138.978h331.535c0.828 0 1.506 0.392 2.304 0.467 16.775-54.332 66.921-94.117 126.946-94.117 73.667 0 133.376 59.512 133.376 132.939S919.115 167.98 845.448 167.98z m0-199.394c-36.834 0.015-66.696 29.787-66.696 66.5s29.877 66.47 66.726 66.47a66.62 66.62 0 0 0 66.695-66.5 66.59 66.59 0 0 0-66.725-66.47zM78.517 400.61h400.67c1.4 0 2.605 0.632 3.93 0.798a133.03 133.03 0 0 1 128.904-100.503c73.667 0 133.376 59.513 133.376 132.94S685.688 566.784 612.02 566.784a133.015 133.015 0 0 1-128.904-100.503c-1.34 0.166-2.53 0.799-3.93 0.799H78.517c-18.417 0-33.34-14.879-33.34-33.235S60.1 400.61 78.516 400.61z m533.519 99.704a66.62 66.62 0 0 0 66.695-66.5c-0.015-36.713-29.876-66.47-66.725-66.47s-66.696 29.787-66.696 66.5a66.59 66.59 0 0 0 66.726 66.47z m-533.52 27.227h151.357c112.775 0 126.705 93.756 135.047 149.745 6.973 47.254 11.234 55.672 19.743 55.672h311.1c15.21-20.073 39.153-33.235 66.319-33.235 46.035 0.015 83.35 37.21 83.35 83.095-0.015 45.884-37.345 83.08-83.38 83.064a83.305 83.305 0 0 1-81.664-66.47H384.663c-69.06 0-79.09-67.628-85.73-112.398-9.804-66.109-18.809-93.019-69.06-93.019H78.517c-18.417 0-33.34-14.878-33.34-33.235s14.923-33.22 33.34-33.22z"  horiz-adv-x="1024" />

    
    <glyph glyph-name="business-11" unicode="&#59833;" d="M866.952 771.223h-64.543a32.256 32.256 0 1 1 0-64.543h64.543c17.814 0 32.27-14.44 32.27-32.27v-645.377a32.256 32.256 0 0 0-32.27-32.27H157.048a32.256 32.256 0 0 0-32.27 32.27V674.424c0 17.83 14.456 32.272 32.27 32.272h64.528a32.256 32.256 0 1 1 0 64.542h-64.528a96.843 96.843 0 0 1-96.813-96.814v-645.376a96.813 96.813 0 0 1 96.813-96.813h709.919a96.798 96.798 0 0 1 96.798 96.798V674.424a96.798 96.798 0 0 1-96.798 96.799h-0.015zM318.389 642.153a32.256 32.256 0 0 1 32.27 32.241v129.1a32.271 32.271 0 0 1-64.541 0v-129.085c0-17.814 14.441-32.256 32.27-32.256z m96.798 64.543h193.611a32.271 32.271 0 0 1 0 64.542H415.187a32.286 32.286 0 0 1 0-64.542z m290.424-64.543a32.256 32.256 0 0 1 32.271 32.271V803.494a32.256 32.256 0 1 1-64.542 0v-129.085c0-17.814 14.457-32.256 32.271-32.256z m-17.995-166.897L450.65 240.55 336.384 353.762c-11.866 11.76-31.127 11.76-42.993 0s-11.866-30.826 0-42.586l135.77-134.506a30.6 30.6 0 0 1 42.993 0l258.455 256a29.922 29.922 0 0 1 0 42.586 30.6 30.6 0 0 1-42.993 0z"  horiz-adv-x="1024" />

    
    <glyph glyph-name="business-17" unicode="&#59834;" d="M265.035 477.545H643.78a32.075 32.075 0 1 1 0.03 64.151H265.035c-56.982 0-101.21 37.256-101.21 80.203s44.228 80.204 101.21 80.204H417.28c12.755-43.159 52.254-74.858 99.569-74.858s86.814 31.699 99.569 74.858h193.476a32.075 32.075 0 1 1 0.03 64.15H614.792c-14.397 40.418-52.6 69.512-97.943 69.512s-83.546-29.094-97.897-69.497H265.035c-90.217 0-165.39-63.277-165.39-144.354s75.173-144.369 165.39-144.369z m668.943 11.58a104.282 104.282 0 0 1-105.17 103.38A104.267 104.267 0 0 1 829.74 384c33.31 0 62.615 15.887 81.694 40.177 11.475-13.101 18.282-28.838 18.282-45.523 0-42.948-44.228-80.203-101.21-80.203H293.06a103.876 103.876 0 0 1-89.103 50.808 103.936 103.936 0 0 1-103.47-95.955c-42.24-25.93-70.37-68.502-70.37-117.91 0-81.077 75.16-144.354 165.392-144.354h262.626a104.132 104.132 0 0 1 93.485-58.805c57.6 0 104.297 46.683 104.297 104.253S609.22 140.74 551.62 140.74a104.162 104.162 0 0 1-102.415-85.52H195.509c-56.983 0-101.21 37.256-101.21 80.204 0 19.004 9.035 36.698 23.642 50.733a104.102 104.102 0 0 1 86.016-45.417 103.936 103.936 0 0 1 103.228 93.545h521.321c90.248 0 165.391 63.277 165.391 144.354 0.015 45.116-23.732 84.24-59.919 110.487z"  horiz-adv-x="1024" />

    
    <glyph glyph-name="basis-1" unicode="&#59793;" d="M619.038 719.992l78.02-107.279a128.392 128.392 0 0 1 103.514-52.72H960v-512H64v512h159.413a128.346 128.346 0 0 1 103.514 52.72l78.035 107.28h214.076M512 143.992c105.864 0 192 86.136 192 192s-86.136 192.015-192 192.015-192-86.137-192-192 86.136-192.016 192-192.016m107.038 640H404.962a64 64 0 0 1-51.757-26.352l-78.02-107.28a63.985 63.985 0 0 0-51.757-26.352H64a64 64 0 0 1-64-64v-512a64 64 0 0 1 64-64h896a64 64 0 0 1 64 64v512a64 64 0 0 1-64 64H800.587a64 64 0 0 0-51.757 26.352l-78.02 107.28a64 64 0 0 1-51.772 26.352zM512 208.008a128 128 0 1 0 0 256 128 128 0 0 0 0-256zM207.992 719.992h-128a31.985 31.985 0 1 1 0-64h128a31.985 31.985 0 1 1 0 64z"  horiz-adv-x="1024" />

    
    <glyph glyph-name="basis-2" unicode="&#59794;" d="M77.824-99.147a47.842 47.842 0 0 0-33.882 14.2c-17.032 17.077-19.065 43.31-4.79 62.389l200.404 271.18L82.492 405.67c-15.33 15.33-18.356 39.288-7.394 58.307 7.515 11.867 72.132 106.12 215.838 70.551 2.38-0.286 4.955-0.512 7.726-0.753 5.888-0.512 12.483-1.114 19.636-2.259 30.42-4.94 84.194 19.486 130.877 59.287 44.724 38.084 73.637 82.537 73.637 113.182 0 7.123-0.165 14.697-0.331 22.136-1.205 28.808-3.027 73.08 30.072 106.165a107.4 107.4 0 0 0 144.159 7.394c0.873-0.693 1.656-1.446 2.424-2.244h-0.03c23.13-22.618 260.156-259.418 262.64-261.918a107.52 107.52 0 0 0 31.685-76.348 106.963 106.963 0 0 0-31.549-76.273c-32.933-32.964-77.462-31.081-106.812-29.832-6.957 0.151-14.562 0.317-21.654 0.317-28.989 0-63.67-20.315-97.552-57.149-47.781-51.968-77.221-119.1-74.691-149.187 1.054-9.653 3.027-26.685 3.388-29.094 34.695-140.71-59.362-204.89-70.19-211.727-19.47-11.746-43.595-8.825-59.27 6.807L367.344 120.817c-9.412 9.412-8.614 41.623 7.093 55.28a41.02 41.02 0 0 0 55.28 0l139.445-146.521c7.394 4.788 54.077 15.962 27.016 126.117-0.482 2.214-2.861 22.167-4.111 33.837-4.036 48.083 26.232 114.643 70.52 166.912 30.51 33.16 39.86 51.381 83.26 83.26 32 23.507 81.86 28.176 89.63 28.01 30.495-1.28 53.866-4.984 78.261 3.373 11.264 11.264 17.438 12.062 17.438 28.01-0.03 16.007-27.542 38.129-38.851 49.453-2.485 2.5-219.468 219.12-226.907 226.259-22.829 18.552-50.01 16.82-71.71-4.91-16.85-16.85-11.204-54.211-9.984-83.937-1.777-28.341-14.17-61.124-32.768-84.15-14.697-18.19-7.981-20.795-64.662-69.09-46.532-39.634-114.432-85.744-168.524-77.07-5.918 0.964-11.339 1.415-16.173 1.822a224.15 224.15 0 0 0-8.764 0.873 24.56 24.56 0 0 0-6.762 1.22c-110.757 27.317-129.28-12.514-134.264-20.374l171.881-178.282c8.418-8.418 9.427-21.73 2.335-31.322L87.37-39.514l204.92 141.733c10.753 7.876 45.268 17.318 62.013-5.315 15.059-20.375 2.756-47.993-7.966-55.808l-240.37-130.862a46.968 46.968 0 0 0-28.144-9.381z"  horiz-adv-x="1024" />

    
    <glyph glyph-name="basis-8" unicode="&#59795;" d="M539.332 803.72c36.668 33.927 53.58 32.466 79.405 32.015l292.97-5.105c25.72-0.452 46.908-21.55 47.33-47.33l4.713-292.593c0.406-25.69 0.948-48.37-32.076-79.345L466.161-54.136a46.366 46.366 0 0 0-65.596-0.046L73.773 272.61a46.441 46.441 0 0 0 0.045 65.596L539.332 803.72z m69.12-35.389L109.237 279.838c19.5 19.38 19.561 35.705-0.06 55.19l350.448-348.204c-19.561 19.425-43.685 11.88-63.171-7.47l499.215 496.023c0.3 0.286 5.21 12.363 5.195 12.875L895.819 807.53c0.422-26.051 13.613-39.077 39.71-39.529l-314.187 5.436c-0.617 0.015-12.574-4.788-12.89-5.105z m83.998-203.836c25.796-25.796 67.945-25.48 94.133 0.723 26.187 26.187 26.518 68.337 0.722 94.133-25.795 25.795-67.945 25.48-94.132-0.723-26.188-26.188-26.519-68.337-0.723-94.133z m0 0"  horiz-adv-x="1024" />

    
    <glyph glyph-name="basis-5" unicode="&#59796;" d="M936.162 796.085H87.823c-26.79 0-35.614-17.288-19.576-38.807l310.422-416.391V-28.07l266.647 121.194V340.887l310.422 416.376c15.978 21.444 7.41 38.822-19.576 38.822zM605.229 398.833L586 373.053v-243.924l-148.013-57.69V373.052l-19.23 25.78L167.529 736h0.467l689.122 0.708L605.23 398.833z"  horiz-adv-x="1024" />

    
    <glyph glyph-name="basis-10" unicode="&#59797;" d="M903.53 805.858a29.907 29.907 0 0 1-29.907 29.907H256.196c-75.31 0-135.725-65.34-135.725-145.213v-596.961c0-88.787 67.087-161.356 150.663-161.356h602.489a29.907 29.907 0 0 1 29.906 29.907V579.976a29.907 29.907 0 0 1-29.906 29.906H256.196c-39.996 0-73.08 35.78-73.08 80.67s33.068 80.67 73.08 80.67h617.427c16.52 0 29.906 13.403 29.906 29.922v4.714zM480.677 545.34H652.95v-173.643l-66.741 54.151a30.57 30.57 0 0 1-38.746 0l-66.786-54.151V545.34z m-224.482 0h161.837v-240.113c-0.015-17.814 14.005-32.27 31.307-32.286 7.048 0 13.884 2.44 19.411 6.927l98.063 79.571 98.063-79.57c13.583-11.039 33.28-8.63 43.987 5.375 4.352 5.692 6.731 12.74 6.716 19.998V545.34h125.29v-548.578H271.134c-48.263 0-88.019 43.008-88.019 96.814v474.94c21.083-14.487 46.05-23.176 73.08-23.176z m51.652 177.484h502.046c17.122 0 30.99-13.87 30.99-30.992v-2.56a30.976 30.976 0 0 0-30.99-30.99H307.848a30.976 30.976 0 0 0-30.992 30.99v2.56c0 17.122 13.885 30.992 30.992 30.992z"  horiz-adv-x="1024" />

    
    <glyph glyph-name="basis-13" unicode="&#59798;" d="M944.158 546.168l-269.99 269.99a66.952 66.952 0 0 1-47.314 19.607H127.157a66.921 66.921 0 0 1-66.922-66.922v-769.671a66.936 66.936 0 0 1 66.922-66.937h769.671a66.936 66.936 0 0 1 66.937 66.922V498.854a66.952 66.952 0 0 1-19.607 47.314zM277.745 768.843h200.78v-117.127h-200.78V768.843z m468.51-769.686h-468.51V149.745H746.24v-150.588z m150.588 0h-83.667V183.22a33.46 33.46 0 0 1-33.46 33.46H244.284a33.46 33.46 0 0 1-33.46-33.46v-184.05h-83.667V768.844h83.667v-150.588c0-18.477 14.983-33.46 33.46-33.46H512a33.46 33.46 0 0 1 33.46 33.46V768.843h81.379l269.99-269.99v-499.696z"  horiz-adv-x="1024" />

    
    <glyph glyph-name="basis-11" unicode="&#59799;" d="M944.196665 120.090938l-56.319305 47.79541V419.170246c0 171.877878-116.040568 316.72709-274.291614 360.924545C621.158653 836.0371 581.826138 887.507465 525.718831 895.067372S417.98916 863.397762 410.400254 807.471453a101.509747 101.509747 0 0 1 0-27.361662C252.163207 735.897336 136.10564 591.049124 136.10564 419.170246v-253.226874L80.345328 120.526932a33.972581 33.972581 0 0 1-12.573845-26.397674v-67.688164a34.122579 34.122579 0 0 1 34.167579-34.06258h200.86752c2.739966-4.772941 5.434933-9.531882 8.506895-14.109826a239.146048 239.146048 0 0 1 199.120542-106.253688 239.237047 239.237047 0 0 1 203.667486 113.346601c1.399983 2.288972 2.499969 4.697942 3.824953 7.016913h204.13448a34.122579 34.122579 0 0 1 34.167579 34.06258v67.689164a34.05658 34.05658 0 0 1-12.031852 25.95968zM510.39002-59.830841a170.553895 170.553895 0 0 0-122.712485 52.223355h245.42497a170.327898 170.327898 0 0 0-122.712485-52.223355z m377.50434 120.363514H136.10664v17.437785l68.336156 55.627313V419.170246c0 137.439303 91.691868 258.103814 224.40323 295.298355l57.268294 15.977803-7.980902 58.773274a34.092579 34.092579 0 0 0 29.289638 38.324527 34.167578 34.167578 0 0 0 38.443526-38.324527l-7.995901-58.773274 57.268293-15.977803c132.711362-37.194541 224.40323-157.858051 224.40323-295.298355v-282.77151l68.336156-58.020283v-17.84478h0.015z"  horiz-adv-x="1024" />

    
    <glyph glyph-name="basis-7" unicode="&#59800;" d="M865.717 630.423h-90.67c14.593 20.736 23.07 45.402 23.07 71.86 0 73.728-65.731 133.482-146.823 133.482-52.314 0-98.229-47.09-124.235-100.292-26.007 53.203-71.921 100.292-124.235 100.292C321.732 835.765 256 776.01 256 702.283c0-26.458 8.463-51.124 23.085-71.875h-90.684c-37.542 0.015-67.93-27.588-67.93-61.636v-574.87c0-34.079 30.418-61.667 67.93-61.667h677.316c37.541 0 67.93 27.603 67.93 61.651V568.772c0 34.063-30.419 61.65-67.93 61.65z m-461.101 147.35c25.615 0 90.352-83.757 90.352-145.573 0-4.202-33.822-5.015-90.352-5.015-49.905 0-90.353 33.702-90.353 75.294s40.448 75.294 90.353 75.294z m93.575-781.252H181.956v256H498.19v-256z m0 318.344H181.956v256H498.19v-256z m153.103 462.712c49.905 0 90.353-33.701 90.353-75.294S701.2 626.99 651.294 626.99c-56.53 0-90.353 0.828-90.353 5.015 0 61.831 64.738 145.573 90.353 145.573z m220.868-781.056H555.927v256h316.235v-256z m0 318.344H555.927v256h316.235v-256z"  horiz-adv-x="1024" />

    
    <glyph glyph-name="basis-6" unicode="&#59801;" d="M163.584 433.453l214.423-134.626c15.465-9.17 20.841-29.605 12.001-45.658-8.84-16.053-28.551-21.625-44.032-12.454a22.061 22.061 0 0 0-1.4 0.889L75.821 410.293c-15.254 9.562-20.149 30.132-10.917 45.944 3.553 6.084 8.884 10.843 15.209 13.583L919.085 833.175c16.444 7.107 35.343-0.964 42.195-18.026a34.693 34.693 0 0 0 1.912-19.125L816.203-7.108c-3.328-18.16-20.209-30.087-37.722-26.639a31.247 31.247 0 0 0-11.264 4.623l-272.46 179.17c-15.058 9.894-19.53 30.57-9.998 46.186 9.532 15.616 29.47 20.254 44.529 10.375l232.387-152.802 126.916 693.61-725.007-313.962zM415.217 241.68v-275.983c0-18.477-14.441-33.46-32.271-33.46s-32.271 14.983-32.271 33.46V257.069c0 9.788 4.126 19.08 11.294 25.435L754.22 630.799a31.473 31.473 0 0 0 45.493-3.674c11.58-14.05 9.999-35.178-3.554-47.18l-380.958-338.22v-0.046z"  horiz-adv-x="1024" />

    
    <glyph glyph-name="basis-3" unicode="&#59802;" d="M401.668-67.88c-15.01 0.225-34.644 0.571-35.758 0.797 0.482-0.09 17.887-9.049 17.887-21.922 0 41.616 0.361 33.35 0.361 87.688 0 43-0.12 123.656-0.12 127.57 0 23.292 0.632 21.802-9.019 31.453-1.506 1.505-181.683 154.868-205.532 246.454-8.296 24.015-11.804 59.05-11.804 79.692 0 201.603 197.176 350.056 353.82 350.056 192.478 0 356.68-158.586 356.68-352.434 0-73.881-55.466-148.138-107.741-205.924C655.68 161.38 628.219 148.823 628.219 119.794v-117.498l25.173 40.23h-289.5c-13.896 0-25.173-26.333-25.173-40.23s11.277-25.174 25.173-25.174H668.45c13.896 0 25.174 11.277 25.174 25.174 0 0 1.535 107.652 1.656 106.793 0.391-2.875 74.452 81.108 102.653 112.29 56.415 62.347 131.892 145.758 132.373 259.236C931.375 728.967 744.347 896 514.936 896S93.695 708.25 93.695 478.839c0-26.65 7.543-68.852 17.57-97.865 19.302-55.874 54.654-123.37 106.643-170.632 25.4-31.317 98.603-92.821 106.552-100.184-1.069 1.084-0.647 1.084-0.647-32.837v-175.66c0-13.476 13.882-29.315 39.146-29.661 9.681 0 301.304 0.271 305.73 0.407 13.897 0.421 25.355 16.923 24.934 30.82-0.211 18.263-14.545 28.937-24.662 29.178 0 0-240.372-0.692-267.293-0.286zM358.683 349.536l125.87-125.87c9.47-9.47 24.692-9.86 34.644-0.918l125.87 126.788c10.328 9.305 11.171 32.793 1.866 43.136-9.304 10.329-32.747 9.305-43.075 0l-125.87-124.966 49.7-0.918-125.869 125.87c-9.832 9.831-33.304 9.831-43.136 0-9.832-9.817-9.832-33.29 0-43.122zM472.237 242.337v-225.843h60.224V242.337z"  horiz-adv-x="1024" />

    
    <glyph glyph-name="basis-9" unicode="&#59803;" d="M650.511 342.302c-15.48 23.025-15.36 60.522 0 83.38l247.673 368.385c15.48 23.025 6.716 41.698-19.487 41.698H145.272c-26.247 0-34.846-18.839-19.47-41.698l247.762-368.384c15.48-23.025 15.375-60.522 0-83.38l-247.763-368.37c-15.495-23.025-6.64-41.698 19.622-41.698h733.214c26.278 0 34.922 18.839 19.547 41.698L650.51 342.303zM217.495-7.529l-0.633-0.317L411.86 281.54c39.755 59.106 39.83 145.694 0 204.92l-202.21 289.07H814.35L609.837 486.444c-39.725-59.09-39.815-145.679 0-204.89l194.32-289.4-586.662 0.316zM511.352 285.636l143.104-206.517H368.248l143.104 206.517z"  horiz-adv-x="1024" />

    
    <glyph glyph-name="basis-4" unicode="&#59804;" d="M993.882 594.899c0 62.027-50.447 112.474-112.504 112.474S768.873 656.926 768.873 594.9c0-53.128 37.09-97.506 86.694-109.252-44.574-88.862-103.47-171.46-135.017-171.46-30.705 0-92.597 89.57-155.212 261.196A126.524 126.524 0 0 1 641.04 691.44c0 70.19-57.118 127.277-127.307 127.277-70.22 0-127.338-57.118-127.338-127.277a126.464 126.464 0 0 1 75.957-116.149c-66.635-184.62-124.627-252.657-148.435-252.657-44.228 0-105.637 85.986-145.604 163.042 49.634 11.716 86.8 56.124 86.8 109.282 0 62.027-50.478 112.474-112.505 112.474S30.117 656.986 30.117 594.96c0-42.511 24.004-79.15 58.896-98.274L111.3 47.631a32.226 32.226 0 0 1 14.908-25.615c4.683-2.997 117.64-72.734 387.539-72.734s382.855 69.993 387.539 72.96a32.422 32.422 0 0 1 14.908 25.81l19.862 449.205c34.274 19.2 57.826 55.552 57.826 97.642z m-160.527 0a48.038 48.038 0 0 0 47.993 47.962A48.038 48.038 0 0 0 929.34 594.9a48.053 48.053 0 0 0-47.992-47.993 48.038 48.038 0 0 0-47.993 47.993z m-382.479 96.497c0 34.605 28.19 62.765 62.826 62.765s62.795-28.16 62.795-62.765c0-32.09-24.26-58.73-56.44-62.028a29.967 29.967 0 0 1-6.295-1.295 31.503 31.503 0 0 1-6.355 1.295 62.374 62.374 0 0 0-56.53 62.028zM142.592 642.86a48.023 48.023 0 0 0 47.992-47.962c0-26.474-21.519-47.993-47.992-47.993S94.6 568.426 94.6 594.9a48.023 48.023 0 0 0 47.992 47.962zM852.51 69.436c-35.96-16.55-141.96-55.732-338.808-55.732-197.135 0-303.195 39.152-338.93 55.567L159.64 373.564c40.478-58.895 94.825-115.47 154.202-115.47 65.385 0 132.563 90.894 199.981 270.395 69.963-185.042 139.37-278.814 206.682-278.814 53.158 0 105.186 59.407 145.333 122.278L852.51 69.436z"  horiz-adv-x="1024" />

    
    <glyph glyph-name="basis-12" unicode="&#59805;" d="M879.435 287.624c-15.059 0-31.623-15.06-31.623-30.118v-174.682c0-18.071-15.06-31.624-31.624-31.624h-614.4c-15.059 0-27.106 18.07-27.106 31.624V263.529c0 13.553-18.07 24.095-31.623 24.095s-31.624-10.542-31.624-24.095v-215.34c0-34.636 27.106-61.742 61.741-61.742h676.142c34.635 0 61.74 27.106 61.74 61.741V257.506c0 15.059-16.564 30.118-31.623 30.118z m84.33 257.505c0 4.518 0 9.036-1.506 13.553L850.824 769.506c-1.506 9.035-10.542 13.553-16.565 13.553H171.67c-9.036 0-16.565-6.024-19.577-13.553L61.741 554.165c-1.506-4.518-1.506-7.53-1.506-12.047v-72.283c0-76.8 64.753-140.047 141.553-140.047h40.66c16.564 0 64.752 6.024 109.928 55.718 25.6-36.141 79.812-55.718 138.542-55.718h45.176c55.718 0 102.4 19.577 129.506 60.236 25.6-37.648 82.824-57.224 117.459-57.224h40.659c76.8 0 140.047 51.2 140.047 140.047V545.13z m-764.989 179.2h606.871l75.294-143.058H143.06l55.717 143.058z m624.942-328.282h-40.66c-30.117 0-82.823 33.13-82.823 69.27 0 13.554-16.564 28.612-36.14 28.612-21.083 0-36.142-15.058-36.142-28.611v-10.542c0-33.129-55.718-67.764-93.365-67.764h-45.176c-43.67 0-102.4 27.106-102.4 60.235v9.035c0 13.553-15.06 28.612-36.141 28.612-19.577 0-36.142-15.059-36.142-28.612 0-31.623-36.14-64.753-90.353-64.753l-21.082 1.506c-28.612 0-82.823 24.094-82.823 69.27v54.213h774.023v-51.2c4.518-37.647-33.13-69.27-70.776-69.27z"  horiz-adv-x="1024" />

    
    <glyph glyph-name="wuyou-01" unicode="&#59724;" d="M511.006118-96.391529a71.228235 71.228235 0 0 0-33.189647 7.845647 726.799059 726.799059 0 0 0-131.373177 84.389647C212.931765 101.571765 114.748235 255.879529 62.704941 441.916235c-1.776941 7.047529-4.186353 15.104-6.942117 24.365177-18.356706 61.545412-49.076706 164.562824 13.43247 200.478117 11.023059 6.535529 21.985882 12.393412 32.527059 18.025412 33.219765 17.724235 57.223529 30.524235 77.357176 62.117647 3.779765 6.098824 7.529412 18.281412 11.14353 30.072471 10.044235 32.692706 26.849882 87.401412 83.425882 87.401412h478.132706c55.326118 0 71.996235-52.464941 83.049412-87.190589 3.779765-11.836235 7.664941-24.079059 11.700706-30.599529 21.850353-34.650353 55.220706-60.973176 91.587764-72.222118l1.039059-0.316235 2.017883-0.572235-0.015059-0.105412c23.747765-8.417882 41.321412-26.036706 46.998588-46.712471 9.728-30.554353 0.662588-67.373176-6.640941-97.008941-1.234824-5.014588-2.409412-9.773176-3.388235-14.125176-6.038588-33.340235-15.420235-66.123294-24.485648-97.807059-26.021647-84.359529-61.033412-161.520941-104.237176-229.948235-55.491765-86.287059-123.392-158.268235-201.999059-214.106353-2.454588-1.837176-5.933176-4.532706-9.728-7.469177-31.894588-24.636235-80.986353-62.584471-126.674823-62.58447zM273.633882 804.141176c-10.315294 0-16.308706-13.839059-25.840941-44.860235-4.743529-15.450353-9.652706-31.427765-17.739294-44.453647-28.837647-45.236706-63.397647-63.683765-100.005647-83.2-9.788235-5.225412-19.968-10.646588-30.524235-16.896-10.014118-5.752471-15.375059-32.993882 13.929411-131.252706 3.056941-10.270118 5.707294-19.215059 7.454118-26.142117 48.384-172.905412 139.444706-316.506353 263.122824-414.464a668.355765 668.355765 0 0 1 121.042823-77.733647c13.206588-6.776471 45.236706 9.667765 95.728941 48.715294 4.080941 3.147294 7.800471 6.023529 11.068236 8.478117 72.929882 51.802353 135.529412 118.226824 186.684235 197.812706 40.252235 63.728941 73.050353 136.041412 97.310118 214.723765 8.884706 31.081412 17.438118 61.003294 23.190588 92.581647 1.295059 5.903059 2.575059 11.098353 3.930353 16.594823 4.939294 20.043294 12.393412 50.326588 7.664941 64.542118a28.129882 28.129882 0 0 0-0.632471 2.198588c-0.451765 0.783059-3.734588 3.960471-8.538353 5.647059l-2.349176 0.722824a454.520471 454.520471 0 0 0-13.206588 4.171294c-4.623059 1.385412-8.553412 2.56-9.652706 2.861176l0.180706 0.632471c-5.571765 2.288941-10.375529 4.833882-14.125177 7.875765-34.665412 18.582588-64.707765 46.742588-86.889412 81.92-8.116706 13.071059-13.161412 28.943059-18.04047 44.288-9.712941 30.659765-16.037647 45.236706-25.630118 45.236705H273.633882zM473.720471 203.926588c-12.077176 0-23.055059 7.228235-27.768471 18.477177l-96.015059 229.014588-38.716235-104.237177a30.117647 30.117647 0 0 0-28.235294-19.636705H135.529412a30.117647 30.117647 0 0 0 0 60.235294h126.509176l57.961412 156.054588a30.117647 30.117647 0 0 0 27.602824 19.621647c12.498824 0.496941 23.612235-7.062588 28.400941-18.462118l93.30447-222.509176 101.12 330.119529a30.102588 30.102588 0 1 0 58.127059-2.032941l59.873882-259.011765H805.647059a30.117647 30.117647 0 0 0 0-60.235294h-141.176471a30.117647 30.117647 0 0 0-29.334588 23.341177L595.154824 527.661176l-92.626824-302.411294a30.117647 30.117647 0 0 0-27.301647-21.248 12.604235 12.604235 0 0 0-1.505882-0.075294z"  horiz-adv-x="1024" />

    
    <glyph glyph-name="wuyou-02" unicode="&#59725;" d="M888.470588 90.352941H135.529412c-41.517176 0-75.294118 33.776941-75.294118 75.294118V745.411765c0 41.517176 33.776941 75.294118 75.294118 75.294117h752.941176c41.517176 0 75.294118-33.776941 75.294118-75.294117v-579.764706c0-41.517176-33.776941-75.294118-75.294118-75.294118zM135.529412 760.470588c-8.312471 0-15.058824-6.761412-15.058824-15.058823v-579.764706a15.058824 15.058824 0 0 1 15.058824-15.058824h752.941176a15.058824 15.058824 0 0 1 15.058824 15.058824V745.411765c0 8.297412-6.746353 15.058824-15.058824 15.058823H135.529412zM841.065412-37.647059H182.919529a30.117647 30.117647 0 0 0 0 60.235294h658.130824a30.117647 30.117647 0 0 0 0.015059-60.235294zM808.161882 226.273882H215.823059a30.132706 30.132706 0 0 0-25.298824 46.47153L486.701176 730.744471a30.117647 30.117647 0 0 0 50.597648 0l296.161882-457.999059a30.147765 30.147765 0 0 0-25.298824-46.47153z m-536.997647 60.235294h481.656471L512 658.928941 271.164235 286.509176zM511.774118 409.253647a22.588235 22.588235 0 0 0-22.588236 22.588235v111.661177a22.588235 22.588235 0 1 0 45.176471 0v-111.661177a22.588235 22.588235 0 0 0-22.588235-22.588235zM512.557176 353.611294m-24.169411 0a24.169412 24.169412 0 1 1 48.338823 0 24.169412 24.169412 0 1 1-48.338823 0Z"  horiz-adv-x="1024" />

    
    <glyph glyph-name="wuyou-04" unicode="&#59726;" d="M385.882353-31.683764999999994h-100.201412a30.102588 30.102588 0 0 0-26.081882 15.058824L32.316235 377.02776500000004a30.208 30.208 0 0 0 0 30.117647L259.584 800.813176a30.117647 30.117647 0 0 0 26.081882 15.058824h454.580706c10.767059 0 20.705882-5.737412 26.081883-15.058824l227.282823-393.667764a30.208 30.208 0 0 0 0-30.117647l-88.530823-153.344a30.117647 30.117647 0 1 0-52.163765 30.117647l79.841882 138.285176L722.868706 755.636706H303.058824L93.168941 392.086588l209.889883-363.550117h82.823529a30.117647 30.117647 0 0 0 0-60.220236zM445.485176 105.41176499999995h-80.64a30.102588 30.102588 0 0 0-26.081882 15.058823L190.644706 377.02776500000004a30.208 30.208 0 0 0 0 30.117647l148.118588 256.557176a30.117647 30.117647 0 0 0 26.081882 15.058824H661.082353c10.767059 0 20.705882-5.737412 26.081882-15.058824l148.133647-256.557176a30.208 30.208 0 0 0 0-30.117647l-18.326588-31.728941a30.117647 30.117647 0 0 0-52.163765 30.117647l9.637647 16.670117-130.740705 226.43953H382.223059l-130.725647-226.43953L382.223059 165.647059h63.262117a30.117647 30.117647 0 0 0 0-60.235294zM888.470588-41.20094099999994H487.152941a22.573176 22.573176 0 0 0-18.959059 34.846117l200.658824 310.287059c8.327529 12.875294 29.620706 12.875294 37.948235 0L907.444706-6.354824000000008A22.603294 22.603294 0 0 0 888.470588-41.20094099999994z m-359.815529 45.17647h318.298353L687.811765 250.066824 528.655059 3.9755290000000514zM687.811765 75.760941a22.588235 22.588235 0 0 0-22.588236 22.588235v81.408a22.588235 22.588235 0 0 0 45.176471 0v-81.408a22.588235 22.588235 0 0 0-22.588235-22.588235zM688.384 41.32141200000001m-22.678588 0a22.678588 22.678588 0 1 1 45.357176 0 22.678588 22.678588 0 1 1-45.357176 0Z"  horiz-adv-x="1024" />

    
    <glyph glyph-name="wuyou-13" unicode="&#59727;" d="M888.470588 100.698353H135.529412c-41.517176 0-75.294118 33.776941-75.294118 75.294118v579.764705c0 41.517176 33.776941 75.294118 75.294118 75.294118h752.941176c41.517176 0 75.294118-33.776941 75.294118-75.294118v-579.764705c0-41.517176-33.776941-75.294118-75.294118-75.294118zM135.529412 770.816a15.058824 15.058824 0 0 1-15.058824-15.058824v-579.764705a15.058824 15.058824 0 0 1 15.058824-15.058824h752.941176a15.058824 15.058824 0 0 1 15.058824 15.058824v579.764705a15.058824 15.058824 0 0 1-15.058824 15.058824H135.529412zM835.072-27.301647000000003H176.941176a30.117647 30.117647 0 0 0 0 60.235294h658.130824a30.117647 30.117647 0 0 0 0-60.235294zM228.412235 384.768a30.117647 30.117647 0 0 0-21.293176 51.410824l173.357176 173.357176a30.117647 30.117647 0 0 0 42.586353 0l125.018353-125.018353 218.051765 218.051765a30.117647 30.117647 0 1 0 42.586353-42.586353L569.374118 420.638118a30.117647 30.117647 0 0 0-42.586353 0l-125.018353 125.018353-152.064-152.064a29.997176 29.997176 0 0 0-21.293177-8.824471zM260.698353 207.05882399999996a30.117647 30.117647 0 0 0-30.117647 30.117647v70.595764a30.117647 30.117647 0 0 0 60.235294 0v-70.595764a30.117647 30.117647 0 0 0-30.117647-30.117647zM437.639529 207.05882399999996a30.117647 30.117647 0 0 0-30.117647 30.117647V399.992471a30.117647 30.117647 0 0 0 60.235294 0V237.176471a30.117647 30.117647 0 0 0-30.117647-30.117647zM614.580706 207.05882399999996a30.117647 30.117647 0 0 0-30.117647 30.117647v102.595764a30.117647 30.117647 0 0 0 60.235294 0v-102.595764a30.117647 30.117647 0 0 0-30.117647-30.117647zM791.521882 207.05882399999996a30.117647 30.117647 0 0 0-30.117647 30.117647v263.529411a30.117647 30.117647 0 0 0 60.235294 0v-263.529411a30.117647 30.117647 0 0 0-30.117647-30.117647z"  horiz-adv-x="1024" />

    
    <glyph glyph-name="wuyou-07" unicode="&#59728;" d="M943.691294-62.47905900000001H453.391059a22.573176 22.573176 0 0 0-18.959059 34.846118l245.142588 379.090823c8.327529 12.875294 29.620706 12.875294 37.948236 0l245.142588-379.090823a22.603294 22.603294 0 0 0-18.974118-34.846118z m-448.798118 45.176471h407.296L698.548706 297.59247100000005 494.893176-17.302588000000014zM698.548706 80.41411800000003a22.588235 22.588235 0 0 0-22.588235 22.588235v99.448471a22.588235 22.588235 0 0 0 45.17647 0v-99.448471a22.588235 22.588235 0 0 0-22.588235-22.588235zM699.226353 33.325176000000056m-27.708235 0a27.708235 27.708235 0 1 1 55.41647 0 27.708235 27.708235 0 1 1-55.41647 0ZM342.588235-72.96000000000004H163.132235a98.304 98.304 0 0 0-98.198588 98.198588V732.385882a98.319059 98.319059 0 0 0 98.198588 98.198589h616.794353a98.288941 98.288941 0 0 0 98.18353-98.198589V342.58823500000005a30.117647 30.117647 0 0 0-60.235294 0V732.385882a38.008471 38.008471 0 0 1-37.948236 37.963294H163.132235a38.008471 38.008471 0 0 1-37.963294-37.963294v-707.147294a38.008471 38.008471 0 0 1 37.963294-37.963294H342.588235a30.117647 30.117647 0 0 0 0-60.235294zM689.874824 548.397176h-436.705883a30.117647 30.117647 0 0 0 0 60.235295h436.705883a30.117647 30.117647 0 0 0 0-60.235295zM539.286588 367.70635300000004h-286.117647a30.117647 30.117647 0 0 0 0 60.235294h286.117647a30.117647 30.117647 0 0 0 0-60.235294zM448.933647 187.00047099999995h-195.764706a30.117647 30.117647 0 0 0 0 60.235294h195.764706a30.117647 30.117647 0 0 0 0-60.235294z"  horiz-adv-x="1024" />

    
    <glyph glyph-name="wuyou-06" unicode="&#59729;" d="M923.226353 77.32705899999996h-401.317647a22.573176 22.573176 0 0 0-18.959059 34.846117l200.643765 310.287059c8.327529 12.860235 29.620706 12.860235 37.948235 0l200.658824-310.287059a22.603294 22.603294 0 0 0-18.974118-34.846117z m-359.815529 45.17647h318.298352L722.552471 368.60988199999997 563.410824 122.50352899999996zM722.552471 194.28894100000002a22.588235 22.588235 0 0 0-22.588236 22.588235v81.408a22.588235 22.588235 0 0 0 45.176471 0v-81.408a22.588235 22.588235 0 0 0-22.588235-22.588235zM723.124706 159.84941200000003m-22.678588 0a22.678588 22.678588 0 1 1 45.357176 0 22.678588 22.678588 0 1 1-45.357176 0ZM936.297412 258.017882a30.117647 30.117647 0 0 0-29.048471 38.098824c3.960471 14.396235 5.872941 29.214118 5.692235 44.092235-0.978824 80.820706-59.723294 147.576471-136.613647 155.256471a30.117647 30.117647 0 0 0 5.993412 59.949176c107.444706-10.736941 189.485176-102.942118 190.85553-214.482823a219.181176 219.181176 0 0 0-7.845647-60.747294 30.162824 30.162824 0 0 0-29.033412-22.166589zM293.827765 125.12376500000005c-127.834353 0-236.318118 105.893647-242.703059 239.917176-6.189176 130.770824 86.994824 244.826353 210.688 262.324706 51.410824 91.768471 147.907765 149.775059 250.940235 149.775059 1.475765 0 2.966588 0.015059 4.367059-0.015059 140.122353 0 262.686118-103.228235 291.162353-245.790118a30.117647 30.117647 0 1 0-59.060706-11.791058c-22.874353 114.447059-120.636235 197.345882-232.568471 197.345882-1.174588-0.030118-2.394353 0.015059-3.599058 0.015059-87.326118 0-165.481412-49.980235-204.965647-130.996706a30.102588 30.102588 0 0 0-25.057883-16.865882c-99.644235-6.701176-176.685176-96.933647-171.730823-201.155765 4.833882-101.933176 86.543059-182.512941 183.506823-182.512941 2.063059 0 4.111059 0.045176 6.204236 0.12047l140.66447 0.015059a30.117647 30.117647 0 0 0 0-60.235294h-139.610353c-2.755765-0.105412-5.511529-0.150588-8.237176-0.150588z"  horiz-adv-x="1024" />

    
    <glyph glyph-name="wuyou-03" unicode="&#59730;" d="M317.997176 278.37741200000005a33.189647 33.189647 0 0 0-33.159529 33.159529V554.631529a33.159529 33.159529 0 1 0 66.319059 0v-243.079529a33.28 33.28 0 0 0-33.15953-33.174588z m188.009412-55.145412a33.204706 33.204706 0 0 0-33.159529 33.174588V609.897412a33.174588 33.174588 0 0 0 66.349176 0v-353.490824a33.144471 33.144471 0 0 0-33.189647-33.174588z m188.024471 55.145412a33.189647 33.189647 0 0 0-33.15953 33.159529V554.631529a33.159529 33.159529 0 1 0 66.319059 0v-243.079529a33.189647 33.189647 0 0 0-33.159529-33.174588z m0 0M506.624-79.16423499999996c-18.401882 0.346353-422.249412 17.197176-422.249412 783.104 0 13.221647 8.628706 24.892235 21.263059 28.79247l391.529412 120.425412a30.087529 30.087529 0 0 0 17.709176 0l391.529412-120.425412a30.117647 30.117647 0 0 0 21.263059-28.79247c0-765.906824-403.862588-782.742588-421.044706-783.104zM144.715294 681.7280000000001c7.137882-672.120471 338.221176-699.557647 361.291294-700.641882 23.070118 1.084235 354.168471 28.536471 361.291294 700.641882l-361.276235 111.134118-361.306353-111.134118z"  horiz-adv-x="1024" />

    
    <glyph glyph-name="wuyou-08" unicode="&#59731;" d="M900.427294 54.30211799999995H115.757176a59.512471 59.512471 0 0 0-51.772235 30.07247 57.840941 57.840941 0 0 0 0.752941 58.955294L457.035294 797.997176a58.985412 58.985412 0 0 0 51.049412 28.822589c21.157647 0 40.252235-10.767059 51.06447-28.822589l392.342589-654.682352a57.946353 57.946353 0 0 0 0.722823-58.970353 59.632941 59.632941 0 0 0-51.787294-30.042353zM508.069647 766.012235L117.368471 114.01035300000001l781.116235 0.527059L508.069647 766.012235z m-25.208471 16.504471h0.150589-0.150589zM508.084706 206.68235300000003m-51.07953 0a51.079529 51.079529 0 1 1 102.159059 0 51.079529 51.079529 0 1 1-102.159059 0ZM508.084706 314.352941a45.176471 45.176471 0 0 0-45.176471 45.176471v180.705882a45.176471 45.176471 0 1 0 90.352941 0v-180.705882a45.176471 45.176471 0 0 0-45.17647-45.176471zM912.790588-52.705881999999974H103.378824a30.117647 30.117647 0 0 0 0 60.235294h809.411764a30.117647 30.117647 0 0 0 0-60.235294z"  horiz-adv-x="1024" />

    
    <glyph glyph-name="wuyou-09" unicode="&#59732;" d="M526.576941 627.7571760000001c-58.112 0-105.411765 47.284706-105.411765 105.411765s47.299765 105.411765 105.411765 105.411765 105.411765-47.284706 105.411765-105.411765-47.299765-105.411765-105.411765-105.411765z m0 150.588236c-24.907294 0-45.176471-20.269176-45.17647-45.176471s20.269176-45.176471 45.17647-45.17647 45.176471 20.269176 45.176471 45.17647-20.269176 45.176471-45.176471 45.176471zM834.334118 27.28658800000005c-58.112 0-105.411765 47.299765-105.411765 105.411765s47.299765 105.411765 105.411765 105.411765 105.411765-47.299765 105.411764-105.411765-47.284706-105.411765-105.411764-105.411765z m0 150.588236c-24.907294 0-45.176471-20.269176-45.176471-45.176471s20.269176-45.176471 45.176471-45.176471 45.176471 20.269176 45.17647 45.176471-20.254118 45.176471-45.17647 45.176471zM210.823529 27.28658800000005c-58.112 0-105.411765 47.299765-105.411764 105.411765s47.299765 105.411765 105.411764 105.411765 105.411765-47.299765 105.411765-105.411765-47.299765-105.411765-105.411765-105.411765z m0 150.588236c-24.907294 0-45.176471-20.269176-45.17647-45.176471s20.269176-45.176471 45.17647-45.176471 45.176471 20.269176 45.176471 45.176471-20.269176 45.176471-45.176471 45.176471zM527.088941 550.023529l3.312941-2.484705c48.820706-36.141176 108.604235-56.591059 170.601412-58.307765l4.216471-0.090353 4.261647-0.180706c2.831059-0.075294 5.677176-0.075294 8.508235 0l4.246588 0.180706v-161.536a118.211765 118.211765 0 0 0-1.807059-25.871059l-0.707764-3.644235-1.114353-4.261647C680.658824 154.20235300000002 527.088941 128.37647100000004 527.088941 128.37647100000004c-85.880471 18.823529-155.994353 77.010824-186.925176 154.864941l-1.264941 3.252706-1.204706 3.343058a123.542588 123.542588 0 0 0-6.881883 38.174118V489.667765c3.930353-0.376471 7.890824-0.451765 11.821177-0.225883l2.951529 0.225883 6.671059 0.225882a366.531765 366.531765 0 0 1 52.886588 6.113882l6.520471 1.310118 4.98447 1.28a343.446588 343.446588 0 0 1 106.270118 48.519529l4.171294 2.906353z m0.512-67.779764l-3.553882-2.18353a285.741176 285.741176 0 0 0-81.980235-33.65647l-4.186353-0.978824-5.797647-1.14447c-11.625412-2.213647-23.371294-3.915294-35.192471-5.059765l-5.918118-0.542118v-102.294588a77.342118 77.342118 0 0 1 3.508706-25.554824l0.813177-2.484705 1.008941-2.469647c21.534118-51.576471 69.330824-90.759529 128.481882-105.291295l2.816-0.677647 2.620235 0.527059c63.548235 13.071059 113.965176 56.455529 131.267765 112.926118l0.692706 2.349176 0.602353 2.605177c0.888471 4.336941 1.370353 8.734118 1.460706 13.161412v107.203764c-47.992471 2.409412-94.253176 16.835765-133.556706 41.60753l-3.087059 1.957647z m0 0M539.136 457.155765c9.035294 0 16.504471-6.927059 17.468235-15.841883l0.090353-1.927529v-121.931294c0-9.170824-6.851765-16.715294-15.661176-17.679059l-1.897412-0.105412h-25.118118c-9.035294 0-16.504471 6.927059-17.468235 15.841883l-0.090353 1.942588v121.931294c0 9.803294 7.860706 17.769412 17.558588 17.769412h25.118118zM524.935529 251.99435300000005m-28.476235 0a28.476235 28.476235 0 1 1 56.952471 0 28.476235 28.476235 0 1 1-56.952471 0ZM587.776 776.764235c8.794353-12.318118 14.095059-27.301647 14.095059-43.595294 0-6.776471-1.189647-13.221647-2.861177-19.471059 162.846118-33.28 286.704941-176.609882 288.948706-349.44a359.152941 359.152941 0 0 0-34.650353-158.991058 75.053176 75.053176 0 0 0 47.977412-38.776471 418.861176 418.861176 0 0 1 46.908235 198.535529C945.468235 574.870588 789.127529 747.339294 587.776 776.764235zM199.168 206.81788200000005a359.303529 359.303529 0 0 0-33.987765 148.088471c-2.273882 176.082824 122.443294 324.713412 288.978824 358.716235a74.872471 74.872471 0 0 0-2.891294 19.546353c0 16.248471 5.255529 31.186824 14.019764 43.489883C259.508706 746.571294 102.204235 567.672471 104.96 354.13835300000005A419.026824 419.026824 0 0 1 147.998118 174.08000000000004a75.023059 75.023059 0 0 0 51.169882 32.737882zM770.499765 93.21411799999998c-63.186824-57.916235-146.974118-93.801412-239.224471-94.991059-1.596235-0.030118-3.162353-0.030118-4.743529-0.030118-96.346353 0-184.169412 38.068706-249.133177 100.020706a74.977882 74.977882 0 0 0-47.375059-38.023529c76.318118-75.580235 181.187765-122.232471 296.493177-122.232471l5.526588 0.030118c112.775529 1.460706 214.693647 47.375059 289.475765 120.726588a74.947765 74.947765 0 0 0-51.019294 34.499765z"  horiz-adv-x="1024" />

    
    <glyph glyph-name="wuyou-16" unicode="&#59733;" d="M918.287059-58.03670599999998h-813.176471a30.102588 30.102588 0 0 0-27.120941 43.203765l406.588235 843.294117a30.132706 30.132706 0 0 0 54.272 0l406.588236-843.294117a30.102588 30.102588 0 0 0-27.151059-43.203765z m-765.214118 60.235294h717.266824L511.698824 746.029176 153.072941 2.1985879999999725zM652.483765 480.045176H370.913882a30.117647 30.117647 0 0 0 0 60.235295h281.569883a30.117647 30.117647 0 0 0 0-60.235295zM743.303529 286.28329399999996H280.094118a30.117647 30.117647 0 0 0 0 60.235294h463.209411a30.117647 30.117647 0 0 0 0-60.235294zM826.533647 115.75717599999996H196.879059a30.117647 30.117647 0 0 0 0 60.235295h629.654588a30.117647 30.117647 0 0 0 0-60.235295z"  horiz-adv-x="1024" />

    
    <glyph glyph-name="wuyou-18" unicode="&#59734;" d="M262.324706 521.502118c-0.481882 36.758588 22.543059 64.331294 64.331294 64.331294 41.306353 0 64.331294-27.497412 64.331294-64.331294V493.929412c0-36.758588-25.253647-45.944471-25.253647-64.331294 0-27.572706 43.459765-23.070118 71.378824-41.441883 13.040941-8.583529 21.473882-20.931765 25.298823-37.014588a18.386824 18.386824 0 0 0-17.889882-22.633412H208.384a18.371765 18.371765 0 0 0-17.874824 22.678589c3.855059 16.067765 12.257882 28.400941 25.22353 36.98447 27.753412 18.386824 71.920941 13.869176 71.920941 41.441882 0 18.386824-25.810824 27.572706-25.328941 64.331295v27.557647z m0 0M870.460235-7.529411999999979h-707.162353c-54.151529 0-98.198588 38.671059-98.198588 86.226824V661.458824c0 47.540706 44.047059 86.226824 98.198588 86.226823h707.162353c54.136471 0 98.183529-38.671059 98.18353-86.226823v-582.761412C968.628706 31.141647000000034 924.581647-7.529411999999979 870.460235-7.529411999999979z m-707.162353 694.964706c-20.224 0-37.963294-12.152471-37.963294-25.991529v-582.761412c0-13.839059 17.739294-25.991529 37.963294-25.991529h707.162353c20.208941 0 37.948235 12.152471 37.948236 25.991529v582.776471c0 13.839059-17.739294 25.991529-37.948236 25.991529h-707.162353zM831.683765 145.874824H202.044235a30.117647 30.117647 0 0 0 0 60.235294H831.698824a30.117647 30.117647 0 0 0-0.015059-60.235294zM831.683765 330.19482400000004H563.456a30.117647 30.117647 0 0 0 0 60.235294H831.698824a30.117647 30.117647 0 0 0-0.015059-60.235294zM831.683765 514.514824H503.220706a30.117647 30.117647 0 0 0 0 60.235294H831.698824a30.117647 30.117647 0 0 0-0.015059-60.235294z"  horiz-adv-x="1024" />

    
    <glyph glyph-name="wuyou-12" unicode="&#59735;" d="M511.201882 45.50776499999995c-7.318588 0-14.742588 1.566118-22.000941 5.315764a329.833412 329.833412 0 0 0-59.346823 38.144c-60.114824 47.631059-104.357647 117.007059-127.683765 200.478118-0.843294 3.282824-1.807059 6.490353-2.906353 10.164706-8.734118 29.274353-24.982588 83.772235 13.673412 105.984 4.758588 2.831059 9.728 5.481412 14.471529 8.011294 14.275765 7.634824 20.856471 11.399529 26.819765 20.766118 0.451765 0.948706 1.897412 5.616941 2.846118 8.719059 4.562824 14.878118 15.269647 49.709176 52.269176 49.709176h205.492706c36.336941 0 47.36-34.650353 52.058353-49.438118 1.008941-3.177412 2.529882-7.966118 3.358117-9.456941 7.062588-11.188706 17.904941-19.832471 29.650824-23.491765l0.587294-0.180705 0.271059-0.090353v0.015058-0.015058c16.158118-5.481412 28.069647-17.468235 32.150588-31.774118 5.481412-17.664 0.798118-36.728471-2.650353-50.718118l-1.370353-5.677176c-2.650353-14.667294-6.972235-29.741176-10.782117-43.023059-11.700706-37.978353-27.376941-72.523294-46.772706-103.243294-25.118118-39.077647-55.823059-71.589647-91.376941-96.858353l-3.644236-2.816c-14.817882-11.429647-39.514353-30.524235-65.114353-30.524235z m4.99953 59.166117a5.511529 5.511529 0 0 1 0.286117-0.150588l-0.286117 0.150588z m-167.905883 251.753412c-0.015059-10.420706 6.4-31.939765 8.673883-39.604706 1.415529-4.698353 2.605176-8.779294 3.403294-11.941647 19.712-70.354824 56.786824-129.008941 107.083294-168.854588a271.811765 271.811765 0 0 1 45.507765-29.711059c7.529412 2.725647 21.564235 13.552941 26.473411 17.347765l4.99953 3.84c29.861647 21.217882 55.265882 48.173176 76.062118 80.534588 16.444235 26.036706 29.876706 55.732706 39.845647 88.064 3.433412 11.971765 7.152941 24.937412 9.487058 37.812706 0.722824 3.312941 1.295059 5.662118 1.912471 8.146823 0.798118 3.222588 2.123294 8.643765 2.876235 13.131295a76.438588 76.438588 0 0 0-2.394353 0.707764l0.105412 0.361412a59.497412 59.497412 0 0 0-5.812706 2.770824 117.097412 117.097412 0 0 0-47.450353 43.083294c-4.683294 7.544471-7.288471 15.736471-9.59247 22.979764-0.677647 2.108235-1.581176 4.969412-2.484706 7.454118H416.933647c-0.813176-2.334118-1.626353-5.029647-2.288941-7.152941-2.243765-7.318588-4.788706-15.616-9.426824-23.100235-14.923294-23.416471-33.28-33.204706-49.453176-41.833412-2.439529-1.28-4.924235-2.620235-7.469177-4.035765z m-4.743529-2.710588l-0.271059-0.150588 0.271059 0.150588zM865.566118-71.72517600000003H158.433882C104.282353-71.72517600000003 60.235294-34.71058800000003 60.235294 10.782117999999969V554.977882c0 45.492706 44.047059 82.507294 98.198588 82.507294H865.581176c54.151529 0 98.198588-37.014588 98.198589-82.507294v-544.210823c-0.015059-45.477647-44.062118-82.492235-98.213647-82.492235zM158.433882 577.2498820000001c-21.729882 0-37.963294-11.745882-37.963294-22.272v-544.210823c0-10.511059 16.233412-22.272 37.963294-22.272H865.581176c21.714824 0 37.963294 11.745882 37.963295 22.272V554.977882c0 10.511059-16.233412 22.272-37.963295 22.272H158.433882zM755.546353 585.487059c-5.903059 0-11.866353 1.731765-17.091765 5.330823L512 747.279059l-226.454588-156.461177a30.117647 30.117647 0 1 0-34.228706 49.558589L494.878118 808.658824a30.087529 30.087529 0 0 0 34.228706 0l243.57647-168.282353a30.117647 30.117647 0 0 0-17.136941-54.889412zM512 771.644235m-51.968 0a51.968 51.968 0 1 1 103.936 0 51.968 51.968 0 1 1-103.936 0Z"  horiz-adv-x="1024" />

    
    <glyph glyph-name="wuyou-20" unicode="&#59736;" d="M905.125647 320.075294H697.133176a30.117647 30.117647 0 0 0 0 60.235294h208.00753a30.117647 30.117647 0 0 0-0.015059-60.235294zM905.125647 178.23623499999997H697.133176a30.117647 30.117647 0 0 0 0 60.235294h208.00753a30.117647 30.117647 0 0 0-0.015059-60.235294zM905.125647 36.397175999999945H697.133176a30.117647 30.117647 0 0 0 0 60.235295h208.00753a30.117647 30.117647 0 0 0-0.015059-60.235295zM563.546353-70.46023500000001a54.046118 54.046118 0 0 0-29.379765 8.658823l-160.12047 103.092706a54.347294 54.347294 0 0 0-24.96753 45.869177v287.774117L90.036706 700.687059a52.510118 52.510118 0 0 0-8.734118 55.717647 52.284235 52.284235 0 0 0 47.932236 31.442823H837.722353c20.796235 0 39.619765-12.333176 47.947294-31.457882a52.525176 52.525176 0 0 0-8.734118-55.702588L617.893647 374.93458799999996v-390.881882a54.543059 54.543059 0 0 0-28.400941-47.902118 54.256941 54.256941 0 0 0-25.946353-6.610823zM409.313882 90.23247100000003l148.35953-95.533177V385.460706c0 6.806588 2.304 13.417412 6.550588 18.748235l257.174588 323.418353H145.588706l257.174588-323.418353c4.231529-5.330824 6.550588-11.941647 6.550588-18.748235v-295.228235zM837.722353 727.612235h0.150588-0.150588z m-702.614588 13.071059c0-0.015059 0-0.015059 0 0 0-0.015059 0-0.015059 0 0z"  horiz-adv-x="1024" />

    
    <glyph glyph-name="wuyou-05" unicode="&#59737;" d="M337.769412 540.732235a22.588235 22.588235 0 0 0-22.588236 22.588236v111.661176a22.588235 22.588235 0 1 0 45.176471 0v-111.661176a22.588235 22.588235 0 0 0-22.588235-22.588236zM338.537412 485.089882m-24.169412 0a24.169412 24.169412 0 1 1 48.338824 0 24.169412 24.169412 0 1 1-48.338824 0ZM500.796235 321.475765H175.269647a83.817412 83.817412 0 0 0-83.712 83.727059V730.714353a83.802353 83.802353 0 0 0 83.712 83.712h325.526588a83.817412 83.817412 0 0 0 83.727059-83.712v-325.526588a83.832471 83.832471 0 0 0-83.727059-83.712zM175.269647 754.191059a23.491765 23.491765 0 0 1-23.476706-23.476706v-325.526588c0-12.950588 10.526118-23.491765 23.476706-23.491765h325.526588c12.950588 0 23.491765 10.541176 23.491765 23.491765V730.714353a23.491765 23.491765 0 0 1-23.491765 23.476706H175.269647zM877.101176-36.26164700000004H664.395294a65.204706 65.204706 0 0 0-65.129412 65.144471V241.588706a65.204706 65.204706 0 0 0 65.129412 65.129412h212.705882a65.204706 65.204706 0 0 0 65.144471-65.129412v-212.705882a65.204706 65.204706 0 0 0-65.144471-65.144471zM664.395294 246.48282400000005a4.939294 4.939294 0 0 1-4.894118-4.894118v-212.705882a4.969412 4.969412 0 0 1 4.894118-4.909177h212.705882a4.969412 4.969412 0 0 1 4.909177 4.909177V241.588706a4.969412 4.969412 0 0 1-4.909177 4.894118H664.395294zM883.260235 370.02541199999996h-175.73647a59.045647 59.045647 0 0 0-58.985412 58.985412v175.73647a59.045647 59.045647 0 0 0 58.985412 58.985412h175.73647a59.045647 59.045647 0 0 0 58.985412-58.985412v-175.73647a59.045647 59.045647 0 0 0-58.985412-58.985412z m-174.486588 60.235294h173.236706V603.4974119999999H708.773647v-173.236706zM463.932235-28.64188200000001h-175.73647a59.045647 59.045647 0 0 0-58.985412 58.985411v175.736471a59.045647 59.045647 0 0 0 58.985412 58.985412h175.73647a59.045647 59.045647 0 0 0 58.985412-58.985412v-175.736471a59.030588 59.030588 0 0 0-58.985412-58.985411z m-174.486588 60.235294h173.236706V204.83011799999997H289.445647v-173.236706z"  horiz-adv-x="1024" />

    
    </font>
</defs>
</svg>
