<svg xmlns="http://www.w3.org/2000/svg" xmlns:xlink="http://www.w3.org/1999/xlink" fill="none" version="1.1" width="28" height="85" viewBox="0 0 28 85"><g style="mix-blend-mode:passthrough"><g style="mix-blend-mode:passthrough"><path d="M16,0C11.58172,0,8,3.58172,8,8L8,30L10,30L10,8Q10,7.85271,10.00723,7.70559Q10.01445,7.55848,10.02889,7.4119Q10.043330000000001,7.26531,10.06494,7.11962Q10.086549999999999,6.97392,10.11529,6.82946Q10.14402,6.685,10.17981,6.54212Q10.2156,6.39924,10.25836,6.25829Q10.30111,6.11734,10.35074,5.97866Q10.40036,5.83998,10.45672,5.7039Q10.51309,5.56782,10.57606,5.43467Q10.63904,5.30152,10.70847,5.17162Q10.777899999999999,5.04172,10.853629999999999,4.91538Q10.92935,4.78905,11.01118,4.66658Q11.09301,4.54411,11.18075,4.4258Q11.2685,4.3075,11.36194,4.19364Q11.45538,4.07978,11.55429,3.97065Q11.65321,3.86151,11.75736,3.75736Q11.861509999999999,3.65321,11.97065,3.55429Q12.07978,3.45538,12.19364,3.36194Q12.307500000000001,3.2685,12.425799999999999,3.18075Q12.54411,3.09301,12.66658,3.01118Q12.78905,2.92935,12.915379999999999,2.85363Q13.04172,2.77791,13.17162,2.70847Q13.30152,2.63904,13.43467,2.57606Q13.567820000000001,2.51309,13.7039,2.45672Q13.83998,2.40036,13.97866,2.35074Q14.11734,2.30111,14.258289999999999,2.25836Q14.399239999999999,2.2156,14.54212,2.17981Q14.684999999999999,2.14402,14.829460000000001,2.11529Q14.97392,2.08655,15.119620000000001,2.06494Q15.26531,2.04333,15.4119,2.02889Q15.55848,2.01445,15.70559,2.00723Q15.85271,2,16,2L28,2L28,0L16,0Z" fill-rule="evenodd" fill="#C9CDD4" fill-opacity="1"/></g><g style="mix-blend-mode:passthrough" transform="matrix(1,0,0,-1,0,170)"><path d="M16,85C11.58172,85,8,88.58172,8,93L8,115L10,115L10,93Q10,92.85271,10.00723,92.70559Q10.01445,92.55848,10.02889,92.4119Q10.043330000000001,92.26531,10.06494,92.11962Q10.086549999999999,91.97391999999999,10.11529,91.82946Q10.14402,91.685,10.17981,91.54212Q10.2156,91.39924,10.25836,91.25829Q10.30111,91.11734,10.35074,90.97866Q10.40036,90.83998,10.45672,90.7039Q10.51309,90.56782,10.57606,90.43467Q10.63904,90.30152,10.70847,90.17162Q10.777899999999999,90.04172,10.853629999999999,89.91538Q10.92935,89.78905,11.01118,89.66658Q11.09301,89.54411,11.18075,89.4258Q11.2685,89.3075,11.36194,89.19364Q11.45538,89.07978,11.55429,88.97065Q11.65321,88.86151,11.75736,88.75736Q11.861509999999999,88.65321,11.97065,88.55429Q12.07978,88.45538,12.19364,88.36194Q12.307500000000001,88.2685,12.425799999999999,88.18075Q12.54411,88.09301,12.66658,88.01118Q12.78905,87.92935,12.915379999999999,87.85363Q13.04172,87.77791,13.17162,87.70847Q13.30152,87.63904,13.43467,87.57606Q13.567820000000001,87.51309,13.7039,87.45672Q13.83998,87.40036,13.97866,87.35074Q14.11734,87.30111,14.258289999999999,87.25836Q14.399239999999999,87.2156,14.54212,87.17981Q14.684999999999999,87.14402,14.829460000000001,87.11529Q14.97392,87.08655,15.119620000000001,87.06494Q15.26531,87.04333,15.4119,87.02889Q15.55848,87.01445,15.70559,87.00722999999999Q15.85271,87,16,87L28,87L28,85L16,85Z" fill-rule="evenodd" fill="#C9CDD4" fill-opacity="1"/></g><g style="mix-blend-mode:passthrough"><path d="M3.81445,35.7855L3.81445,49.473L0.966797,49.473L0.966797,50.791399999999996L17.0449,50.791399999999996L17.0449,49.473L14.3965,49.473L14.3965,35.7855L3.81445,35.7855ZM5.14453,49.473L5.14453,46.098L13.0137,46.098L13.0137,49.473L5.14453,49.473ZM5.14453,41.598L13.0137,41.598L13.0137,44.8031L5.14453,44.8031L5.14453,41.598ZM5.14453,40.3207L5.14453,37.098L13.0137,37.098L13.0137,40.3207L5.14453,40.3207Z" fill="#4E5969" fill-opacity="1"/></g></g></svg>